<?xml version="1.0" encoding="UTF-8" standalone="no"?>
<!DOCTYPE svg PUBLIC "-//W3C//DTD SVG 1.1//EN"
 "http://www.w3.org/Graphics/SVG/1.1/DTD/svg11.dtd">
<!-- Generated by graphviz version 2.40.1 (20161225.0304)
 -->
<!-- Title: inheritance22566cccd9 Pages: 1 -->
<svg width="576pt" height="28pt"
 viewBox="0.00 0.00 576.00 27.61" xmlns="http://www.w3.org/2000/svg" xmlns:xlink="http://www.w3.org/1999/xlink">
<g id="graph0" class="graph" transform="scale(.4315 .4315) rotate(0) translate(4 60)">
<title>inheritance22566cccd9</title>
<polygon fill="#ffffff" stroke="transparent" points="-4,4 -4,-60 1331,-60 1331,4 -4,4"/>
<!-- pyGHDL.dom.Common.GHDLMixin -->
<g id="node1" class="node">
<title>pyGHDL.dom.Common.GHDLMixin</title>
<g id="a_node1"><a xlink:href="../pyGHDL.dom.Common.html#pyGHDL.dom.Common.GHDLMixin" xlink:title="pyGHDL.dom.Common.GHDLMixin" target="_top">
<polygon fill="none" stroke="#000000" stroke-width=".5" points="983,-56 798,-56 798,-37 983,-37 983,-56"/>
<text text-anchor="middle" x="890.5" y="-44" font-family="Vera Sans, DejaVu Sans, Liberation Sans, Arial, Helvetica, sans" font-size="10.00" fill="#000000">pyGHDL.dom.Common.GHDLMixin</text>
</a>
</g>
</g>
<!-- pyGHDL.dom.InterfaceItem.PortSignalInterfaceItem -->
<g id="node2" class="node">
<title>pyGHDL.dom.InterfaceItem.PortSignalInterfaceItem</title>
<g id="a_node2"><a xlink:href="../pyGHDL/pyGHDL.dom.InterfaceItem.html#pyGHDL.dom.InterfaceItem.PortSignalInterfaceItem" xlink:title="pyGHDL.dom.InterfaceItem.PortSignalInterfaceItem" target="_top">
<polygon fill="none" stroke="#000000" stroke-width=".5" points="1327,-37 1058,-37 1058,-18 1327,-18 1327,-37"/>
<text text-anchor="middle" x="1192.5" y="-25" font-family="Vera Sans, DejaVu Sans, Liberation Sans, Arial, Helvetica, sans" font-size="10.00" fill="#000000">pyGHDL.dom.InterfaceItem.PortSignalInterfaceItem</text>
</a>
</g>
</g>
<!-- pyGHDL.dom.Common.GHDLMixin&#45;&gt;pyGHDL.dom.InterfaceItem.PortSignalInterfaceItem -->
<g id="edge2" class="edge">
<title>pyGHDL.dom.Common.GHDLMixin&#45;&gt;pyGHDL.dom.InterfaceItem.PortSignalInterfaceItem</title>
<path fill="none" stroke="#000000" stroke-width=".5" d="M983.1623,-40.6703C1005.1771,-39.2852 1029.1468,-37.7772 1052.748,-36.2923"/>
<polygon fill="#000000" stroke="#000000" stroke-width=".5" points="1052.8976,-38.0365 1057.7778,-35.9759 1052.6777,-34.5434 1052.8976,-38.0365"/>
</g>
<!-- pyVHDLModel.VHDLModel.PortSignalInterfaceItem -->
<g id="node3" class="node">
<title>pyVHDLModel.VHDLModel.PortSignalInterfaceItem</title>
<polygon fill="none" stroke="#000000" stroke-width=".5" points="1022,-19 759,-19 759,0 1022,0 1022,-19"/>
<text text-anchor="middle" x="890.5" y="-7" font-family="Vera Sans, DejaVu Sans, Liberation Sans, Arial, Helvetica, sans" font-size="10.00" fill="#000000">pyVHDLModel.VHDLModel.PortSignalInterfaceItem</text>
</g>
<!-- pyVHDLModel.VHDLModel.PortSignalInterfaceItem&#45;&gt;pyGHDL.dom.InterfaceItem.PortSignalInterfaceItem -->
<g id="edge1" class="edge">
<title>pyVHDLModel.VHDLModel.PortSignalInterfaceItem&#45;&gt;pyGHDL.dom.InterfaceItem.PortSignalInterfaceItem</title>
<path fill="none" stroke="#000000" stroke-width=".5" d="M1022.0831,-17.3427C1032.0995,-17.9397 1042.2317,-18.5436 1052.2997,-19.1437"/>
<polygon fill="#000000" stroke="#000000" stroke-width=".5" points="1052.4624,-20.9064 1057.5577,-19.4571 1052.6707,-17.4126 1052.4624,-20.9064"/>
</g>
<!-- pyVHDLModel.VHDLModel.InterfaceItem -->
<g id="node4" class="node">
<title>pyVHDLModel.VHDLModel.InterfaceItem</title>
<polygon fill="none" stroke="#000000" stroke-width=".5" points="454,-19 241,-19 241,0 454,0 454,-19"/>
<text text-anchor="middle" x="347.5" y="-7" font-family="Vera Sans, DejaVu Sans, Liberation Sans, Arial, Helvetica, sans" font-size="10.00" fill="#000000">pyVHDLModel.VHDLModel.InterfaceItem</text>
</g>
<!-- pyVHDLModel.VHDLModel.PortInterfaceItem -->
<g id="node6" class="node">
<title>pyVHDLModel.VHDLModel.PortInterfaceItem</title>
<polygon fill="none" stroke="#000000" stroke-width=".5" points="723,-19 490,-19 490,0 723,0 723,-19"/>
<text text-anchor="middle" x="606.5" y="-7" font-family="Vera Sans, DejaVu Sans, Liberation Sans, Arial, Helvetica, sans" font-size="10.00" fill="#000000">pyVHDLModel.VHDLModel.PortInterfaceItem</text>
</g>
<!-- pyVHDLModel.VHDLModel.InterfaceItem&#45;&gt;pyVHDLModel.VHDLModel.PortInterfaceItem -->
<g id="edge4" class="edge">
<title>pyVHDLModel.VHDLModel.InterfaceItem&#45;&gt;pyVHDLModel.VHDLModel.PortInterfaceItem</title>
<path fill="none" stroke="#000000" stroke-width=".5" d="M454.3405,-9.5C464.308,-9.5 474.4604,-9.5 484.5514,-9.5"/>
<polygon fill="#000000" stroke="#000000" stroke-width=".5" points="484.8215,-11.2501 489.8214,-9.5 484.8214,-7.7501 484.8215,-11.2501"/>
</g>
<!-- pyVHDLModel.VHDLModel.ModelEntity -->
<g id="node5" class="node">
<title>pyVHDLModel.VHDLModel.ModelEntity</title>
<g id="a_node5"><a xlink:title="``ModelEntity`` is a base class for all classes in the VHDL language model,">
<polygon fill="none" stroke="#000000" stroke-width=".5" points="205,-19 0,-19 0,0 205,0 205,-19"/>
<text text-anchor="middle" x="102.5" y="-7" font-family="Vera Sans, DejaVu Sans, Liberation Sans, Arial, Helvetica, sans" font-size="10.00" fill="#000000">pyVHDLModel.VHDLModel.ModelEntity</text>
</a>
</g>
</g>
<!-- pyVHDLModel.VHDLModel.ModelEntity&#45;&gt;pyVHDLModel.VHDLModel.InterfaceItem -->
<g id="edge3" class="edge">
<title>pyVHDLModel.VHDLModel.ModelEntity&#45;&gt;pyVHDLModel.VHDLModel.InterfaceItem</title>
<path fill="none" stroke="#000000" stroke-width=".5" d="M205.3372,-9.5C215.4654,-9.5 225.7778,-9.5 235.9875,-9.5"/>
<polygon fill="#000000" stroke="#000000" stroke-width=".5" points="235.9901,-11.2501 240.9901,-9.5 235.99,-7.7501 235.9901,-11.2501"/>
</g>
<!-- pyVHDLModel.VHDLModel.PortInterfaceItem&#45;&gt;pyVHDLModel.VHDLModel.PortSignalInterfaceItem -->
<g id="edge5" class="edge">
<title>pyVHDLModel.VHDLModel.PortInterfaceItem&#45;&gt;pyVHDLModel.VHDLModel.PortSignalInterfaceItem</title>
<path fill="none" stroke="#000000" stroke-width=".5" d="M723.2431,-9.5C733.3668,-9.5 743.6674,-9.5 753.9302,-9.5"/>
<polygon fill="#000000" stroke="#000000" stroke-width=".5" points="753.9643,-11.2501 758.9643,-9.5 753.9642,-7.7501 753.9643,-11.2501"/>
</g>
</g>
</svg>
