<?xml version="1.0" encoding="UTF-8" standalone="no"?>
<!DOCTYPE svg PUBLIC "-//W3C//DTD SVG 1.1//EN"
 "http://www.w3.org/Graphics/SVG/1.1/DTD/svg11.dtd">
<!-- Generated by graphviz version 2.40.1 (20161225.0304)
 -->
<!-- Title: inheritance4575fca33d Pages: 1 -->
<svg width="576pt" height="49pt"
 viewBox="0.00 0.00 576.00 49.05" xmlns="http://www.w3.org/2000/svg" xmlns:xlink="http://www.w3.org/1999/xlink">
<g id="graph0" class="graph" transform="scale(.5981 .5981) rotate(0) translate(4 78)">
<title>inheritance4575fca33d</title>
<polygon fill="#ffffff" stroke="transparent" points="-4,4 -4,-78 959,-78 959,4 -4,4"/>
<!-- pyGHDL.dom.Common.GHDLMixin -->
<g id="node1" class="node">
<title>pyGHDL.dom.Common.GHDLMixin</title>
<g id="a_node1"><a xlink:href="../pyGHDL.dom.Common.html#pyGHDL.dom.Common.GHDLMixin" xlink:title="pyGHDL.dom.Common.GHDLMixin" target="_top">
<polygon fill="none" stroke="#000000" stroke-width=".5" points="699.5,-74 514.5,-74 514.5,-55 699.5,-55 699.5,-74"/>
<text text-anchor="middle" x="607" y="-62" font-family="Vera Sans, DejaVu Sans, Liberation Sans, Arial, Helvetica, sans" font-size="10.00" fill="#000000">pyGHDL.dom.Common.GHDLMixin</text>
</a>
</g>
</g>
<!-- pyGHDL.dom.DesignUnit.PackageBody -->
<g id="node2" class="node">
<title>pyGHDL.dom.DesignUnit.PackageBody</title>
<g id="a_node2"><a xlink:href="../pyGHDL/pyGHDL.dom.DesignUnit.html#pyGHDL.dom.DesignUnit.PackageBody" xlink:title="pyGHDL.dom.DesignUnit.PackageBody" target="_top">
<polygon fill="none" stroke="#000000" stroke-width=".5" points="955,-55 749,-55 749,-36 955,-36 955,-55"/>
<text text-anchor="middle" x="852" y="-43" font-family="Vera Sans, DejaVu Sans, Liberation Sans, Arial, Helvetica, sans" font-size="10.00" fill="#000000">pyGHDL.dom.DesignUnit.PackageBody</text>
</a>
</g>
</g>
<!-- pyGHDL.dom.Common.GHDLMixin&#45;&gt;pyGHDL.dom.DesignUnit.PackageBody -->
<g id="edge2" class="edge">
<title>pyGHDL.dom.Common.GHDLMixin&#45;&gt;pyGHDL.dom.DesignUnit.PackageBody</title>
<path fill="none" stroke="#000000" stroke-width=".5" d="M699.624,-57.3169C714.1116,-56.1934 729.193,-55.0238 743.9884,-53.8764"/>
<polygon fill="#000000" stroke="#000000" stroke-width=".5" points="744.1441,-55.6197 748.9938,-53.4882 743.8734,-52.1302 744.1441,-55.6197"/>
</g>
<!-- pyVHDLModel.VHDLModel.PackageBody -->
<g id="node3" class="node">
<title>pyVHDLModel.VHDLModel.PackageBody</title>
<polygon fill="none" stroke="#000000" stroke-width=".5" points="713,-37 501,-37 501,-18 713,-18 713,-37"/>
<text text-anchor="middle" x="607" y="-25" font-family="Vera Sans, DejaVu Sans, Liberation Sans, Arial, Helvetica, sans" font-size="10.00" fill="#000000">pyVHDLModel.VHDLModel.PackageBody</text>
</g>
<!-- pyVHDLModel.VHDLModel.PackageBody&#45;&gt;pyGHDL.dom.DesignUnit.PackageBody -->
<g id="edge1" class="edge">
<title>pyVHDLModel.VHDLModel.PackageBody&#45;&gt;pyGHDL.dom.DesignUnit.PackageBody</title>
<path fill="none" stroke="#000000" stroke-width=".5" d="M713.0356,-35.2904C723.2603,-36.0416 733.6409,-36.8042 743.8854,-37.5569"/>
<polygon fill="#000000" stroke="#000000" stroke-width=".5" points="743.7875,-39.3043 748.9023,-37.9255 744.044,-35.8137 743.7875,-39.3043"/>
</g>
<!-- pyVHDLModel.VHDLModel.ModelEntity -->
<g id="node4" class="node">
<title>pyVHDLModel.VHDLModel.ModelEntity</title>
<g id="a_node4"><a xlink:title="``ModelEntity`` is a base class for all classes in the VHDL language model,">
<polygon fill="none" stroke="#000000" stroke-width=".5" points="208,-56 3,-56 3,-37 208,-37 208,-56"/>
<text text-anchor="middle" x="105.5" y="-44" font-family="Vera Sans, DejaVu Sans, Liberation Sans, Arial, Helvetica, sans" font-size="10.00" fill="#000000">pyVHDLModel.VHDLModel.ModelEntity</text>
</a>
</g>
</g>
<!-- pyVHDLModel.VHDLModel.SecondaryUnit -->
<g id="node6" class="node">
<title>pyVHDLModel.VHDLModel.SecondaryUnit</title>
<polygon fill="none" stroke="#000000" stroke-width=".5" points="465,-37 247,-37 247,-18 465,-18 465,-37"/>
<text text-anchor="middle" x="356" y="-25" font-family="Vera Sans, DejaVu Sans, Liberation Sans, Arial, Helvetica, sans" font-size="10.00" fill="#000000">pyVHDLModel.VHDLModel.SecondaryUnit</text>
</g>
<!-- pyVHDLModel.VHDLModel.ModelEntity&#45;&gt;pyVHDLModel.VHDLModel.SecondaryUnit -->
<g id="edge4" class="edge">
<title>pyVHDLModel.VHDLModel.ModelEntity&#45;&gt;pyVHDLModel.VHDLModel.SecondaryUnit</title>
<path fill="none" stroke="#000000" stroke-width=".5" d="M208.1107,-38.7172C219.1247,-37.8818 230.3803,-37.028 241.5214,-36.183"/>
<polygon fill="#000000" stroke="#000000" stroke-width=".5" points="241.7776,-37.9187 246.6309,-35.7955 241.5129,-34.4287 241.7776,-37.9187"/>
</g>
<!-- pyVHDLModel.VHDLModel.NamedEntity -->
<g id="node5" class="node">
<title>pyVHDLModel.VHDLModel.NamedEntity</title>
<g id="a_node5"><a xlink:title="A ``NamedEntity`` is a mixin class for all VHDL entities that have names.">
<polygon fill="none" stroke="#000000" stroke-width=".5" points="211,-19 0,-19 0,0 211,0 211,-19"/>
<text text-anchor="middle" x="105.5" y="-7" font-family="Vera Sans, DejaVu Sans, Liberation Sans, Arial, Helvetica, sans" font-size="10.00" fill="#000000">pyVHDLModel.VHDLModel.NamedEntity</text>
</a>
</g>
</g>
<!-- pyVHDLModel.VHDLModel.NamedEntity&#45;&gt;pyVHDLModel.VHDLModel.SecondaryUnit -->
<g id="edge5" class="edge">
<title>pyVHDLModel.VHDLModel.NamedEntity&#45;&gt;pyVHDLModel.VHDLModel.SecondaryUnit</title>
<path fill="none" stroke="#000000" stroke-width=".5" d="M211.0085,-17.0815C221.2353,-17.8163 231.6422,-18.5641 241.9472,-19.3046"/>
<polygon fill="#000000" stroke="#000000" stroke-width=".5" points="241.884,-21.0545 246.9966,-19.6674 242.1349,-17.5635 241.884,-21.0545"/>
</g>
<!-- pyVHDLModel.VHDLModel.SecondaryUnit&#45;&gt;pyVHDLModel.VHDLModel.PackageBody -->
<g id="edge3" class="edge">
<title>pyVHDLModel.VHDLModel.SecondaryUnit&#45;&gt;pyVHDLModel.VHDLModel.PackageBody</title>
<path fill="none" stroke="#000000" stroke-width=".5" d="M465.3621,-27.5C475.3744,-27.5 485.5261,-27.5 495.5565,-27.5"/>
<polygon fill="#000000" stroke="#000000" stroke-width=".5" points="495.7894,-29.2501 500.7893,-27.5 495.7893,-25.7501 495.7894,-29.2501"/>
</g>
</g>
</svg>
