<?xml version="1.0" encoding="UTF-8" standalone="no"?>
<!DOCTYPE svg PUBLIC "-//W3C//DTD SVG 1.1//EN"
 "http://www.w3.org/Graphics/SVG/1.1/DTD/svg11.dtd">
<!-- Generated by graphviz version 2.40.1 (20161225.0304)
 -->
<!-- Title: inheritance0862afb825 Pages: 1 -->
<svg width="576pt" height="26pt"
 viewBox="0.00 0.00 576.00 26.05" xmlns="http://www.w3.org/2000/svg" xmlns:xlink="http://www.w3.org/1999/xlink">
<g id="graph0" class="graph" transform="scale(.4071 .4071) rotate(0) translate(4 60)">
<title>inheritance0862afb825</title>
<polygon fill="#ffffff" stroke="transparent" points="-4,4 -4,-60 1411,-60 1411,4 -4,4"/>
<!-- pyGHDL.dom.Common.GHDLMixin -->
<g id="node1" class="node">
<title>pyGHDL.dom.Common.GHDLMixin</title>
<g id="a_node1"><a xlink:href="../pyGHDL.dom.Common.html#pyGHDL.dom.Common.GHDLMixin" xlink:title="pyGHDL.dom.Common.GHDLMixin" target="_top">
<polygon fill="none" stroke="#000000" stroke-width=".5" points="1016.5,-56 831.5,-56 831.5,-37 1016.5,-37 1016.5,-56"/>
<text text-anchor="middle" x="924" y="-44" font-family="Vera Sans, DejaVu Sans, Liberation Sans, Arial, Helvetica, sans" font-size="10.00" fill="#000000">pyGHDL.dom.Common.GHDLMixin</text>
</a>
</g>
</g>
<!-- pyGHDL.dom.InterfaceItem.GenericConstantInterfaceItem -->
<g id="node2" class="node">
<title>pyGHDL.dom.InterfaceItem.GenericConstantInterfaceItem</title>
<g id="a_node2"><a xlink:href="../pyGHDL/pyGHDL.dom.InterfaceItem.html#pyGHDL.dom.InterfaceItem.GenericConstantInterfaceItem" xlink:title="pyGHDL.dom.InterfaceItem.GenericConstantInterfaceItem" target="_top">
<polygon fill="none" stroke="#000000" stroke-width=".5" points="1407,-37 1107,-37 1107,-18 1407,-18 1407,-37"/>
<text text-anchor="middle" x="1257" y="-25" font-family="Vera Sans, DejaVu Sans, Liberation Sans, Arial, Helvetica, sans" font-size="10.00" fill="#000000">pyGHDL.dom.InterfaceItem.GenericConstantInterfaceItem</text>
</a>
</g>
</g>
<!-- pyGHDL.dom.Common.GHDLMixin&#45;&gt;pyGHDL.dom.InterfaceItem.GenericConstantInterfaceItem -->
<g id="edge2" class="edge">
<title>pyGHDL.dom.Common.GHDLMixin&#45;&gt;pyGHDL.dom.InterfaceItem.GenericConstantInterfaceItem</title>
<path fill="none" stroke="#000000" stroke-width=".5" d="M1016.7591,-41.2074C1043.2286,-39.6972 1072.814,-38.0091 1101.931,-36.3478"/>
<polygon fill="#000000" stroke="#000000" stroke-width=".5" points="1102.0868,-38.0918 1106.979,-36.0598 1101.8874,-34.5975 1102.0868,-38.0918"/>
</g>
<!-- pyVHDLModel.VHDLModel.GenericConstantInterfaceItem -->
<g id="node3" class="node">
<title>pyVHDLModel.VHDLModel.GenericConstantInterfaceItem</title>
<polygon fill="none" stroke="#000000" stroke-width=".5" points="1071,-19 777,-19 777,0 1071,0 1071,-19"/>
<text text-anchor="middle" x="924" y="-7" font-family="Vera Sans, DejaVu Sans, Liberation Sans, Arial, Helvetica, sans" font-size="10.00" fill="#000000">pyVHDLModel.VHDLModel.GenericConstantInterfaceItem</text>
</g>
<!-- pyVHDLModel.VHDLModel.GenericConstantInterfaceItem&#45;&gt;pyGHDL.dom.InterfaceItem.GenericConstantInterfaceItem -->
<g id="edge1" class="edge">
<title>pyVHDLModel.VHDLModel.GenericConstantInterfaceItem&#45;&gt;pyGHDL.dom.InterfaceItem.GenericConstantInterfaceItem</title>
<path fill="none" stroke="#000000" stroke-width=".5" d="M1071.028,-17.4475C1081.2844,-18.0019 1091.6408,-18.5617 1101.9386,-19.1183"/>
<polygon fill="#000000" stroke="#000000" stroke-width=".5" points="1101.9013,-20.8687 1106.9885,-19.3913 1102.0903,-17.3739 1101.9013,-20.8687"/>
</g>
<!-- pyVHDLModel.VHDLModel.GenericInterfaceItem -->
<g id="node4" class="node">
<title>pyVHDLModel.VHDLModel.GenericInterfaceItem</title>
<polygon fill="none" stroke="#000000" stroke-width=".5" points="741,-19 490,-19 490,0 741,0 741,-19"/>
<text text-anchor="middle" x="615.5" y="-7" font-family="Vera Sans, DejaVu Sans, Liberation Sans, Arial, Helvetica, sans" font-size="10.00" fill="#000000">pyVHDLModel.VHDLModel.GenericInterfaceItem</text>
</g>
<!-- pyVHDLModel.VHDLModel.GenericInterfaceItem&#45;&gt;pyVHDLModel.VHDLModel.GenericConstantInterfaceItem -->
<g id="edge3" class="edge">
<title>pyVHDLModel.VHDLModel.GenericInterfaceItem&#45;&gt;pyVHDLModel.VHDLModel.GenericConstantInterfaceItem</title>
<path fill="none" stroke="#000000" stroke-width=".5" d="M741.4237,-9.5C751.3551,-9.5 761.4488,-9.5 771.5323,-9.5"/>
<polygon fill="#000000" stroke="#000000" stroke-width=".5" points="771.8036,-11.2501 776.8035,-9.5 771.8035,-7.7501 771.8036,-11.2501"/>
</g>
<!-- pyVHDLModel.VHDLModel.InterfaceItem -->
<g id="node5" class="node">
<title>pyVHDLModel.VHDLModel.InterfaceItem</title>
<polygon fill="none" stroke="#000000" stroke-width=".5" points="454,-19 241,-19 241,0 454,0 454,-19"/>
<text text-anchor="middle" x="347.5" y="-7" font-family="Vera Sans, DejaVu Sans, Liberation Sans, Arial, Helvetica, sans" font-size="10.00" fill="#000000">pyVHDLModel.VHDLModel.InterfaceItem</text>
</g>
<!-- pyVHDLModel.VHDLModel.InterfaceItem&#45;&gt;pyVHDLModel.VHDLModel.GenericInterfaceItem -->
<g id="edge4" class="edge">
<title>pyVHDLModel.VHDLModel.InterfaceItem&#45;&gt;pyVHDLModel.VHDLModel.GenericInterfaceItem</title>
<path fill="none" stroke="#000000" stroke-width=".5" d="M454.1908,-9.5C464.2262,-9.5 474.475,-9.5 484.699,-9.5"/>
<polygon fill="#000000" stroke="#000000" stroke-width=".5" points="484.7151,-11.2501 489.715,-9.5 484.715,-7.7501 484.7151,-11.2501"/>
</g>
<!-- pyVHDLModel.VHDLModel.ModelEntity -->
<g id="node6" class="node">
<title>pyVHDLModel.VHDLModel.ModelEntity</title>
<g id="a_node6"><a xlink:title="``ModelEntity`` is a base class for all classes in the VHDL language model,">
<polygon fill="none" stroke="#000000" stroke-width=".5" points="205,-19 0,-19 0,0 205,0 205,-19"/>
<text text-anchor="middle" x="102.5" y="-7" font-family="Vera Sans, DejaVu Sans, Liberation Sans, Arial, Helvetica, sans" font-size="10.00" fill="#000000">pyVHDLModel.VHDLModel.ModelEntity</text>
</a>
</g>
</g>
<!-- pyVHDLModel.VHDLModel.ModelEntity&#45;&gt;pyVHDLModel.VHDLModel.InterfaceItem -->
<g id="edge5" class="edge">
<title>pyVHDLModel.VHDLModel.ModelEntity&#45;&gt;pyVHDLModel.VHDLModel.InterfaceItem</title>
<path fill="none" stroke="#000000" stroke-width=".5" d="M205.3372,-9.5C215.4654,-9.5 225.7778,-9.5 235.9875,-9.5"/>
<polygon fill="#000000" stroke="#000000" stroke-width=".5" points="235.9901,-11.2501 240.9901,-9.5 235.99,-7.7501 235.9901,-11.2501"/>
</g>
</g>
</svg>
