<?xml version="1.0" encoding="UTF-8" standalone="no"?>
<!DOCTYPE svg PUBLIC "-//W3C//DTD SVG 1.1//EN"
 "http://www.w3.org/Graphics/SVG/1.1/DTD/svg11.dtd">
<!-- Generated by graphviz version 2.40.1 (20161225.0304)
 -->
<!-- Title: inheritance94e9d1640a Pages: 1 -->
<svg width="576pt" height="50pt"
 viewBox="0.00 0.00 576.00 49.67" xmlns="http://www.w3.org/2000/svg" xmlns:xlink="http://www.w3.org/1999/xlink">
<g id="graph0" class="graph" transform="scale(.6057 .6057) rotate(0) translate(4 78)">
<title>inheritance94e9d1640a</title>
<polygon fill="#ffffff" stroke="transparent" points="-4,4 -4,-78 947,-78 947,4 -4,4"/>
<!-- pyGHDL.dom.Common.GHDLMixin -->
<g id="node1" class="node">
<title>pyGHDL.dom.Common.GHDLMixin</title>
<g id="a_node1"><a xlink:href="../pyGHDL.dom.Common.html#pyGHDL.dom.Common.GHDLMixin" xlink:title="pyGHDL.dom.Common.GHDLMixin" target="_top">
<polygon fill="none" stroke="#000000" stroke-width=".5" points="696.5,-74 511.5,-74 511.5,-55 696.5,-55 696.5,-74"/>
<text text-anchor="middle" x="604" y="-62" font-family="Vera Sans, DejaVu Sans, Liberation Sans, Arial, Helvetica, sans" font-size="10.00" fill="#000000">pyGHDL.dom.Common.GHDLMixin</text>
</a>
</g>
</g>
<!-- pyGHDL.dom.DesignUnit.Architecture -->
<g id="node2" class="node">
<title>pyGHDL.dom.DesignUnit.Architecture</title>
<g id="a_node2"><a xlink:href="../pyGHDL/pyGHDL.dom.DesignUnit.html#pyGHDL.dom.DesignUnit.Architecture" xlink:title="pyGHDL.dom.DesignUnit.Architecture" target="_top">
<polygon fill="none" stroke="#000000" stroke-width=".5" points="943,-55 743,-55 743,-36 943,-36 943,-55"/>
<text text-anchor="middle" x="843" y="-43" font-family="Vera Sans, DejaVu Sans, Liberation Sans, Arial, Helvetica, sans" font-size="10.00" fill="#000000">pyGHDL.dom.DesignUnit.Architecture</text>
</a>
</g>
</g>
<!-- pyGHDL.dom.Common.GHDLMixin&#45;&gt;pyGHDL.dom.DesignUnit.Architecture -->
<g id="edge2" class="edge">
<title>pyGHDL.dom.Common.GHDLMixin&#45;&gt;pyGHDL.dom.DesignUnit.Architecture</title>
<path fill="none" stroke="#000000" stroke-width=".5" d="M696.7457,-57.1269C710.1848,-56.0585 724.0998,-54.9523 737.7625,-53.8662"/>
<polygon fill="#000000" stroke="#000000" stroke-width=".5" points="737.9378,-55.6078 742.7834,-53.467 737.6604,-52.1188 737.9378,-55.6078"/>
</g>
<!-- pyVHDLModel.VHDLModel.Architecture -->
<g id="node3" class="node">
<title>pyVHDLModel.VHDLModel.Architecture</title>
<polygon fill="none" stroke="#000000" stroke-width=".5" points="707,-37 501,-37 501,-18 707,-18 707,-37"/>
<text text-anchor="middle" x="604" y="-25" font-family="Vera Sans, DejaVu Sans, Liberation Sans, Arial, Helvetica, sans" font-size="10.00" fill="#000000">pyVHDLModel.VHDLModel.Architecture</text>
</g>
<!-- pyVHDLModel.VHDLModel.Architecture&#45;&gt;pyGHDL.dom.DesignUnit.Architecture -->
<g id="edge1" class="edge">
<title>pyVHDLModel.VHDLModel.Architecture&#45;&gt;pyGHDL.dom.DesignUnit.Architecture</title>
<path fill="none" stroke="#000000" stroke-width=".5" d="M707.0916,-35.2642C717.2974,-36.0329 727.6659,-36.8137 737.8917,-37.5839"/>
<polygon fill="#000000" stroke="#000000" stroke-width=".5" points="737.7816,-39.3305 742.8989,-37.961 738.0445,-35.8404 737.7816,-39.3305"/>
</g>
<!-- pyVHDLModel.VHDLModel.SecondaryUnit -->
<g id="node4" class="node">
<title>pyVHDLModel.VHDLModel.SecondaryUnit</title>
<polygon fill="none" stroke="#000000" stroke-width=".5" points="465,-37 247,-37 247,-18 465,-18 465,-37"/>
<text text-anchor="middle" x="356" y="-25" font-family="Vera Sans, DejaVu Sans, Liberation Sans, Arial, Helvetica, sans" font-size="10.00" fill="#000000">pyVHDLModel.VHDLModel.SecondaryUnit</text>
</g>
<!-- pyVHDLModel.VHDLModel.SecondaryUnit&#45;&gt;pyVHDLModel.VHDLModel.Architecture -->
<g id="edge3" class="edge">
<title>pyVHDLModel.VHDLModel.SecondaryUnit&#45;&gt;pyVHDLModel.VHDLModel.Architecture</title>
<path fill="none" stroke="#000000" stroke-width=".5" d="M465.1373,-27.5C475.2076,-27.5 485.4105,-27.5 495.4753,-27.5"/>
<polygon fill="#000000" stroke="#000000" stroke-width=".5" points="495.7245,-29.2501 500.7245,-27.5 495.7245,-25.7501 495.7245,-29.2501"/>
</g>
<!-- pyVHDLModel.VHDLModel.ModelEntity -->
<g id="node5" class="node">
<title>pyVHDLModel.VHDLModel.ModelEntity</title>
<g id="a_node5"><a xlink:title="``ModelEntity`` is a base class for all classes in the VHDL language model,">
<polygon fill="none" stroke="#000000" stroke-width=".5" points="208,-56 3,-56 3,-37 208,-37 208,-56"/>
<text text-anchor="middle" x="105.5" y="-44" font-family="Vera Sans, DejaVu Sans, Liberation Sans, Arial, Helvetica, sans" font-size="10.00" fill="#000000">pyVHDLModel.VHDLModel.ModelEntity</text>
</a>
</g>
</g>
<!-- pyVHDLModel.VHDLModel.ModelEntity&#45;&gt;pyVHDLModel.VHDLModel.SecondaryUnit -->
<g id="edge4" class="edge">
<title>pyVHDLModel.VHDLModel.ModelEntity&#45;&gt;pyVHDLModel.VHDLModel.SecondaryUnit</title>
<path fill="none" stroke="#000000" stroke-width=".5" d="M208.1107,-38.7172C219.1247,-37.8818 230.3803,-37.028 241.5214,-36.183"/>
<polygon fill="#000000" stroke="#000000" stroke-width=".5" points="241.7776,-37.9187 246.6309,-35.7955 241.5129,-34.4287 241.7776,-37.9187"/>
</g>
<!-- pyVHDLModel.VHDLModel.NamedEntity -->
<g id="node6" class="node">
<title>pyVHDLModel.VHDLModel.NamedEntity</title>
<g id="a_node6"><a xlink:title="A ``NamedEntity`` is a mixin class for all VHDL entities that have names.">
<polygon fill="none" stroke="#000000" stroke-width=".5" points="211,-19 0,-19 0,0 211,0 211,-19"/>
<text text-anchor="middle" x="105.5" y="-7" font-family="Vera Sans, DejaVu Sans, Liberation Sans, Arial, Helvetica, sans" font-size="10.00" fill="#000000">pyVHDLModel.VHDLModel.NamedEntity</text>
</a>
</g>
</g>
<!-- pyVHDLModel.VHDLModel.NamedEntity&#45;&gt;pyVHDLModel.VHDLModel.SecondaryUnit -->
<g id="edge5" class="edge">
<title>pyVHDLModel.VHDLModel.NamedEntity&#45;&gt;pyVHDLModel.VHDLModel.SecondaryUnit</title>
<path fill="none" stroke="#000000" stroke-width=".5" d="M211.0085,-17.0815C221.2353,-17.8163 231.6422,-18.5641 241.9472,-19.3046"/>
<polygon fill="#000000" stroke="#000000" stroke-width=".5" points="241.884,-21.0545 246.9966,-19.6674 242.1349,-17.5635 241.884,-21.0545"/>
</g>
</g>
</svg>
