<?xml version="1.0" encoding="UTF-8" standalone="no"?>
<!DOCTYPE svg PUBLIC "-//W3C//DTD SVG 1.1//EN"
 "http://www.w3.org/Graphics/SVG/1.1/DTD/svg11.dtd">
<!-- Generated by graphviz version 2.40.1 (20161225.0304)
 -->
<!-- Title: inheritanceec0550a951 Pages: 1 -->
<svg width="576pt" height="67pt"
 viewBox="0.00 0.00 576.00 66.62" xmlns="http://www.w3.org/2000/svg" xmlns:xlink="http://www.w3.org/1999/xlink">
<g id="graph0" class="graph" transform="scale(.8124 .8124) rotate(0) translate(4 78)">
<title>inheritanceec0550a951</title>
<polygon fill="#ffffff" stroke="transparent" points="-4,4 -4,-78 705,-78 705,4 -4,4"/>
<!-- pyGHDL.dom.Common.GHDLMixin -->
<g id="node1" class="node">
<title>pyGHDL.dom.Common.GHDLMixin</title>
<g id="a_node1"><a xlink:href="../pyGHDL.dom.Common.html#pyGHDL.dom.Common.GHDLMixin" xlink:title="pyGHDL.dom.Common.GHDLMixin" target="_top">
<polygon fill="none" stroke="#000000" stroke-width=".5" points="445.5,-74 260.5,-74 260.5,-55 445.5,-55 445.5,-74"/>
<text text-anchor="middle" x="353" y="-62" font-family="Vera Sans, DejaVu Sans, Liberation Sans, Arial, Helvetica, sans" font-size="10.00" fill="#000000">pyGHDL.dom.Common.GHDLMixin</text>
</a>
</g>
</g>
<!-- pyGHDL.dom.DesignUnit.Configuration -->
<g id="node2" class="node">
<title>pyGHDL.dom.DesignUnit.Configuration</title>
<g id="a_node2"><a xlink:href="../pyGHDL/pyGHDL.dom.DesignUnit.html#pyGHDL.dom.DesignUnit.Configuration" xlink:title="pyGHDL.dom.DesignUnit.Configuration" target="_top">
<polygon fill="none" stroke="#000000" stroke-width=".5" points="701,-55 495,-55 495,-36 701,-36 701,-55"/>
<text text-anchor="middle" x="598" y="-43" font-family="Vera Sans, DejaVu Sans, Liberation Sans, Arial, Helvetica, sans" font-size="10.00" fill="#000000">pyGHDL.dom.DesignUnit.Configuration</text>
</a>
</g>
</g>
<!-- pyGHDL.dom.Common.GHDLMixin&#45;&gt;pyGHDL.dom.DesignUnit.Configuration -->
<g id="edge2" class="edge">
<title>pyGHDL.dom.Common.GHDLMixin&#45;&gt;pyGHDL.dom.DesignUnit.Configuration</title>
<path fill="none" stroke="#000000" stroke-width=".5" d="M445.624,-57.3169C460.1116,-56.1934 475.193,-55.0238 489.9884,-53.8764"/>
<polygon fill="#000000" stroke="#000000" stroke-width=".5" points="490.1441,-55.6197 494.9938,-53.4882 489.8734,-52.1302 490.1441,-55.6197"/>
</g>
<!-- pyVHDLModel.VHDLModel.Configuration -->
<g id="node3" class="node">
<title>pyVHDLModel.VHDLModel.Configuration</title>
<polygon fill="none" stroke="#000000" stroke-width=".5" points="459,-37 247,-37 247,-18 459,-18 459,-37"/>
<text text-anchor="middle" x="353" y="-25" font-family="Vera Sans, DejaVu Sans, Liberation Sans, Arial, Helvetica, sans" font-size="10.00" fill="#000000">pyVHDLModel.VHDLModel.Configuration</text>
</g>
<!-- pyVHDLModel.VHDLModel.Configuration&#45;&gt;pyGHDL.dom.DesignUnit.Configuration -->
<g id="edge1" class="edge">
<title>pyVHDLModel.VHDLModel.Configuration&#45;&gt;pyGHDL.dom.DesignUnit.Configuration</title>
<path fill="none" stroke="#000000" stroke-width=".5" d="M459.0356,-35.2904C469.2603,-36.0416 479.6409,-36.8042 489.8854,-37.5569"/>
<polygon fill="#000000" stroke="#000000" stroke-width=".5" points="489.7875,-39.3043 494.9023,-37.9255 490.044,-35.8137 489.7875,-39.3043"/>
</g>
<!-- pyVHDLModel.VHDLModel.ModelEntity -->
<g id="node4" class="node">
<title>pyVHDLModel.VHDLModel.ModelEntity</title>
<g id="a_node4"><a xlink:title="``ModelEntity`` is a base class for all classes in the VHDL language model,">
<polygon fill="none" stroke="#000000" stroke-width=".5" points="208,-56 3,-56 3,-37 208,-37 208,-56"/>
<text text-anchor="middle" x="105.5" y="-44" font-family="Vera Sans, DejaVu Sans, Liberation Sans, Arial, Helvetica, sans" font-size="10.00" fill="#000000">pyVHDLModel.VHDLModel.ModelEntity</text>
</a>
</g>
</g>
<!-- pyVHDLModel.VHDLModel.ModelEntity&#45;&gt;pyVHDLModel.VHDLModel.Configuration -->
<g id="edge3" class="edge">
<title>pyVHDLModel.VHDLModel.ModelEntity&#45;&gt;pyVHDLModel.VHDLModel.Configuration</title>
<path fill="none" stroke="#000000" stroke-width=".5" d="M208.3121,-38.6074C219.3688,-37.7586 230.6552,-36.8921 241.8042,-36.0362"/>
<polygon fill="#000000" stroke="#000000" stroke-width=".5" points="242.0644,-37.7715 246.9158,-35.6438 241.7964,-34.2818 242.0644,-37.7715"/>
</g>
<!-- pyVHDLModel.VHDLModel.NamedEntity -->
<g id="node5" class="node">
<title>pyVHDLModel.VHDLModel.NamedEntity</title>
<g id="a_node5"><a xlink:title="A ``NamedEntity`` is a mixin class for all VHDL entities that have names.">
<polygon fill="none" stroke="#000000" stroke-width=".5" points="211,-19 0,-19 0,0 211,0 211,-19"/>
<text text-anchor="middle" x="105.5" y="-7" font-family="Vera Sans, DejaVu Sans, Liberation Sans, Arial, Helvetica, sans" font-size="10.00" fill="#000000">pyVHDLModel.VHDLModel.NamedEntity</text>
</a>
</g>
</g>
<!-- pyVHDLModel.VHDLModel.NamedEntity&#45;&gt;pyVHDLModel.VHDLModel.Configuration -->
<g id="edge4" class="edge">
<title>pyVHDLModel.VHDLModel.NamedEntity&#45;&gt;pyVHDLModel.VHDLModel.Configuration</title>
<path fill="none" stroke="#000000" stroke-width=".5" d="M211.1802,-17.1858C221.3421,-17.9249 231.6701,-18.676 241.8822,-19.4187"/>
<polygon fill="#000000" stroke="#000000" stroke-width=".5" points="241.7711,-21.1652 246.8849,-19.7825 242.025,-17.6744 241.7711,-21.1652"/>
</g>
</g>
</svg>
