<?xml version="1.0" encoding="UTF-8" standalone="no"?>
<!DOCTYPE svg PUBLIC "-//W3C//DTD SVG 1.1//EN"
 "http://www.w3.org/Graphics/SVG/1.1/DTD/svg11.dtd">
<!-- Generated by graphviz version 2.40.1 (20161225.0304)
 -->
<!-- Title: inheritanceb3f6728f9c Pages: 1 -->
<svg width="576pt" height="52pt"
 viewBox="0.00 0.00 576.00 52.31" xmlns="http://www.w3.org/2000/svg" xmlns:xlink="http://www.w3.org/1999/xlink">
<g id="graph0" class="graph" transform="scale(.6379 .6379) rotate(0) translate(4 78)">
<title>inheritanceb3f6728f9c</title>
<polygon fill="#ffffff" stroke="transparent" points="-4,4 -4,-78 899,-78 899,4 -4,4"/>
<!-- pyGHDL.dom.Common.GHDLMixin -->
<g id="node1" class="node">
<title>pyGHDL.dom.Common.GHDLMixin</title>
<g id="a_node1"><a xlink:href="../pyGHDL.dom.Common.html#pyGHDL.dom.Common.GHDLMixin" xlink:title="pyGHDL.dom.Common.GHDLMixin" target="_top">
<polygon fill="none" stroke="#000000" stroke-width=".5" points="675.5,-74 490.5,-74 490.5,-55 675.5,-55 675.5,-74"/>
<text text-anchor="middle" x="583" y="-62" font-family="Vera Sans, DejaVu Sans, Liberation Sans, Arial, Helvetica, sans" font-size="10.00" fill="#000000">pyGHDL.dom.Common.GHDLMixin</text>
</a>
</g>
</g>
<!-- pyGHDL.dom.DesignUnit.Package -->
<g id="node2" class="node">
<title>pyGHDL.dom.DesignUnit.Package</title>
<g id="a_node2"><a xlink:href="../pyGHDL/pyGHDL.dom.DesignUnit.html#pyGHDL.dom.DesignUnit.Package" xlink:title="pyGHDL.dom.DesignUnit.Package" target="_top">
<polygon fill="none" stroke="#000000" stroke-width=".5" points="895,-55 713,-55 713,-36 895,-36 895,-55"/>
<text text-anchor="middle" x="804" y="-43" font-family="Vera Sans, DejaVu Sans, Liberation Sans, Arial, Helvetica, sans" font-size="10.00" fill="#000000">pyGHDL.dom.DesignUnit.Package</text>
</a>
</g>
</g>
<!-- pyGHDL.dom.Common.GHDLMixin&#45;&gt;pyGHDL.dom.DesignUnit.Package -->
<g id="edge2" class="edge">
<title>pyGHDL.dom.Common.GHDLMixin&#45;&gt;pyGHDL.dom.DesignUnit.Package</title>
<path fill="none" stroke="#000000" stroke-width=".5" d="M675.7633,-56.5249C686.3206,-55.6172 697.0996,-54.6905 707.7013,-53.7791"/>
<polygon fill="#000000" stroke="#000000" stroke-width=".5" points="708.0581,-55.5049 712.8898,-53.333 707.7582,-52.0178 708.0581,-55.5049"/>
</g>
<!-- pyVHDLModel.VHDLModel.Package -->
<g id="node3" class="node">
<title>pyVHDLModel.VHDLModel.Package</title>
<polygon fill="none" stroke="#000000" stroke-width=".5" points="677,-37 489,-37 489,-18 677,-18 677,-37"/>
<text text-anchor="middle" x="583" y="-25" font-family="Vera Sans, DejaVu Sans, Liberation Sans, Arial, Helvetica, sans" font-size="10.00" fill="#000000">pyVHDLModel.VHDLModel.Package</text>
</g>
<!-- pyVHDLModel.VHDLModel.Package&#45;&gt;pyGHDL.dom.DesignUnit.Package -->
<g id="edge1" class="edge">
<title>pyVHDLModel.VHDLModel.Package&#45;&gt;pyGHDL.dom.DesignUnit.Package</title>
<path fill="none" stroke="#000000" stroke-width=".5" d="M677.0444,-35.1597C687.2414,-35.9902 697.6297,-36.8364 707.8513,-37.6689"/>
<polygon fill="#000000" stroke="#000000" stroke-width=".5" points="707.7287,-39.4146 712.8542,-38.0764 708.0128,-35.9262 707.7287,-39.4146"/>
</g>
<!-- pyVHDLModel.VHDLModel.ModelEntity -->
<g id="node4" class="node">
<title>pyVHDLModel.VHDLModel.ModelEntity</title>
<g id="a_node4"><a xlink:title="``ModelEntity`` is a base class for all classes in the VHDL language model,">
<polygon fill="none" stroke="#000000" stroke-width=".5" points="208,-56 3,-56 3,-37 208,-37 208,-56"/>
<text text-anchor="middle" x="105.5" y="-44" font-family="Vera Sans, DejaVu Sans, Liberation Sans, Arial, Helvetica, sans" font-size="10.00" fill="#000000">pyVHDLModel.VHDLModel.ModelEntity</text>
</a>
</g>
</g>
<!-- pyVHDLModel.VHDLModel.PrimaryUnit -->
<g id="node6" class="node">
<title>pyVHDLModel.VHDLModel.PrimaryUnit</title>
<polygon fill="none" stroke="#000000" stroke-width=".5" points="453,-37 247,-37 247,-18 453,-18 453,-37"/>
<text text-anchor="middle" x="350" y="-25" font-family="Vera Sans, DejaVu Sans, Liberation Sans, Arial, Helvetica, sans" font-size="10.00" fill="#000000">pyVHDLModel.VHDLModel.PrimaryUnit</text>
</g>
<!-- pyVHDLModel.VHDLModel.ModelEntity&#45;&gt;pyVHDLModel.VHDLModel.PrimaryUnit -->
<g id="edge4" class="edge">
<title>pyVHDLModel.VHDLModel.ModelEntity&#45;&gt;pyVHDLModel.VHDLModel.PrimaryUnit</title>
<path fill="none" stroke="#000000" stroke-width=".5" d="M208.1273,-38.5249C219.2334,-37.6618 230.5613,-36.7815 241.7314,-35.9135"/>
<polygon fill="#000000" stroke="#000000" stroke-width=".5" points="242.0018,-37.6479 246.8512,-35.5157 241.7306,-34.1584 242.0018,-37.6479"/>
</g>
<!-- pyVHDLModel.VHDLModel.NamedEntity -->
<g id="node5" class="node">
<title>pyVHDLModel.VHDLModel.NamedEntity</title>
<g id="a_node5"><a xlink:title="A ``NamedEntity`` is a mixin class for all VHDL entities that have names.">
<polygon fill="none" stroke="#000000" stroke-width=".5" points="211,-19 0,-19 0,0 211,0 211,-19"/>
<text text-anchor="middle" x="105.5" y="-7" font-family="Vera Sans, DejaVu Sans, Liberation Sans, Arial, Helvetica, sans" font-size="10.00" fill="#000000">pyVHDLModel.VHDLModel.NamedEntity</text>
</a>
</g>
</g>
<!-- pyVHDLModel.VHDLModel.NamedEntity&#45;&gt;pyVHDLModel.VHDLModel.PrimaryUnit -->
<g id="edge5" class="edge">
<title>pyVHDLModel.VHDLModel.NamedEntity&#45;&gt;pyVHDLModel.VHDLModel.PrimaryUnit</title>
<path fill="none" stroke="#000000" stroke-width=".5" d="M211.3192,-17.2904C221.3204,-18.0267 231.471,-18.7739 241.4967,-19.512"/>
<polygon fill="#000000" stroke="#000000" stroke-width=".5" points="241.6116,-21.2751 246.7267,-19.8971 241.8687,-17.7846 241.6116,-21.2751"/>
</g>
<!-- pyVHDLModel.VHDLModel.PrimaryUnit&#45;&gt;pyVHDLModel.VHDLModel.Package -->
<g id="edge3" class="edge">
<title>pyVHDLModel.VHDLModel.PrimaryUnit&#45;&gt;pyVHDLModel.VHDLModel.Package</title>
<path fill="none" stroke="#000000" stroke-width=".5" d="M453.2147,-27.5C463.2694,-27.5 473.4578,-27.5 483.4752,-27.5"/>
<polygon fill="#000000" stroke="#000000" stroke-width=".5" points="483.6964,-29.2501 488.6964,-27.5 483.6963,-25.7501 483.6964,-29.2501"/>
</g>
</g>
</svg>
