<?xml version="1.0" encoding="UTF-8" standalone="no"?>
<!DOCTYPE svg PUBLIC "-//W3C//DTD SVG 1.1//EN"
 "http://www.w3.org/Graphics/SVG/1.1/DTD/svg11.dtd">
<!-- Generated by graphviz version 2.40.1 (20161225.0304)
 -->
<!-- Title: inheritancededccd7a28 Pages: 1 -->
<svg width="576pt" height="53pt"
 viewBox="0.00 0.00 576.00 53.19" xmlns="http://www.w3.org/2000/svg" xmlns:xlink="http://www.w3.org/1999/xlink">
<g id="graph0" class="graph" transform="scale(.6486 .6486) rotate(0) translate(4 78)">
<title>inheritancededccd7a28</title>
<polygon fill="#ffffff" stroke="transparent" points="-4,4 -4,-78 884,-78 884,4 -4,4"/>
<!-- pyGHDL.dom.Common.GHDLMixin -->
<g id="node1" class="node">
<title>pyGHDL.dom.Common.GHDLMixin</title>
<g id="a_node1"><a xlink:href="../pyGHDL.dom.Common.html#pyGHDL.dom.Common.GHDLMixin" xlink:title="pyGHDL.dom.Common.GHDLMixin" target="_top">
<polygon fill="none" stroke="#000000" stroke-width=".5" points="674,-74 489,-74 489,-55 674,-55 674,-74"/>
<text text-anchor="middle" x="581.5" y="-62" font-family="Vera Sans, DejaVu Sans, Liberation Sans, Arial, Helvetica, sans" font-size="10.00" fill="#000000">pyGHDL.dom.Common.GHDLMixin</text>
</a>
</g>
</g>
<!-- pyGHDL.dom.DesignUnit.Entity -->
<g id="node2" class="node">
<title>pyGHDL.dom.DesignUnit.Entity</title>
<g id="a_node2"><a xlink:href="../pyGHDL/pyGHDL.dom.DesignUnit.html#pyGHDL.dom.DesignUnit.Entity" xlink:title="pyGHDL.dom.DesignUnit.Entity" target="_top">
<polygon fill="none" stroke="#000000" stroke-width=".5" points="880,-55 710,-55 710,-36 880,-36 880,-55"/>
<text text-anchor="middle" x="795" y="-43" font-family="Vera Sans, DejaVu Sans, Liberation Sans, Arial, Helvetica, sans" font-size="10.00" fill="#000000">pyGHDL.dom.DesignUnit.Entity</text>
</a>
</g>
</g>
<!-- pyGHDL.dom.Common.GHDLMixin&#45;&gt;pyGHDL.dom.DesignUnit.Entity -->
<g id="edge2" class="edge">
<title>pyGHDL.dom.Common.GHDLMixin&#45;&gt;pyGHDL.dom.DesignUnit.Entity</title>
<path fill="none" stroke="#000000" stroke-width=".5" d="M674.2128,-56.2492C684.2749,-55.3538 694.5064,-54.4432 704.5412,-53.5502"/>
<polygon fill="#000000" stroke="#000000" stroke-width=".5" points="704.9437,-55.2714 709.7689,-53.085 704.6334,-51.7852 704.9437,-55.2714"/>
</g>
<!-- pyVHDLModel.VHDLModel.Entity -->
<g id="node3" class="node">
<title>pyVHDLModel.VHDLModel.Entity</title>
<polygon fill="none" stroke="#000000" stroke-width=".5" points="669.5,-37 493.5,-37 493.5,-18 669.5,-18 669.5,-37"/>
<text text-anchor="middle" x="581.5" y="-25" font-family="Vera Sans, DejaVu Sans, Liberation Sans, Arial, Helvetica, sans" font-size="10.00" fill="#000000">pyVHDLModel.VHDLModel.Entity</text>
</g>
<!-- pyVHDLModel.VHDLModel.Entity&#45;&gt;pyGHDL.dom.DesignUnit.Entity -->
<g id="edge1" class="edge">
<title>pyVHDLModel.VHDLModel.Entity&#45;&gt;pyGHDL.dom.DesignUnit.Entity</title>
<path fill="none" stroke="#000000" stroke-width=".5" d="M669.5712,-34.9252C681.2301,-35.9082 693.1957,-36.917 704.8883,-37.9028"/>
<polygon fill="#000000" stroke="#000000" stroke-width=".5" points="704.7516,-39.6474 709.881,-38.3237 705.0457,-36.1597 704.7516,-39.6474"/>
</g>
<!-- pyVHDLModel.VHDLModel.PrimaryUnit -->
<g id="node4" class="node">
<title>pyVHDLModel.VHDLModel.PrimaryUnit</title>
<polygon fill="none" stroke="#000000" stroke-width=".5" points="453,-37 247,-37 247,-18 453,-18 453,-37"/>
<text text-anchor="middle" x="350" y="-25" font-family="Vera Sans, DejaVu Sans, Liberation Sans, Arial, Helvetica, sans" font-size="10.00" fill="#000000">pyVHDLModel.VHDLModel.PrimaryUnit</text>
</g>
<!-- pyVHDLModel.VHDLModel.PrimaryUnit&#45;&gt;pyVHDLModel.VHDLModel.Entity -->
<g id="edge3" class="edge">
<title>pyVHDLModel.VHDLModel.PrimaryUnit&#45;&gt;pyVHDLModel.VHDLModel.Entity</title>
<path fill="none" stroke="#000000" stroke-width=".5" d="M453.2247,-27.5C464.8308,-27.5 476.6068,-27.5 488.0787,-27.5"/>
<polygon fill="#000000" stroke="#000000" stroke-width=".5" points="488.3265,-29.2501 493.3265,-27.5 488.3264,-25.7501 488.3265,-29.2501"/>
</g>
<!-- pyVHDLModel.VHDLModel.ModelEntity -->
<g id="node5" class="node">
<title>pyVHDLModel.VHDLModel.ModelEntity</title>
<g id="a_node5"><a xlink:title="``ModelEntity`` is a base class for all classes in the VHDL language model,">
<polygon fill="none" stroke="#000000" stroke-width=".5" points="208,-56 3,-56 3,-37 208,-37 208,-56"/>
<text text-anchor="middle" x="105.5" y="-44" font-family="Vera Sans, DejaVu Sans, Liberation Sans, Arial, Helvetica, sans" font-size="10.00" fill="#000000">pyVHDLModel.VHDLModel.ModelEntity</text>
</a>
</g>
</g>
<!-- pyVHDLModel.VHDLModel.ModelEntity&#45;&gt;pyVHDLModel.VHDLModel.PrimaryUnit -->
<g id="edge4" class="edge">
<title>pyVHDLModel.VHDLModel.ModelEntity&#45;&gt;pyVHDLModel.VHDLModel.PrimaryUnit</title>
<path fill="none" stroke="#000000" stroke-width=".5" d="M208.1273,-38.5249C219.2334,-37.6618 230.5613,-36.7815 241.7314,-35.9135"/>
<polygon fill="#000000" stroke="#000000" stroke-width=".5" points="242.0018,-37.6479 246.8512,-35.5157 241.7306,-34.1584 242.0018,-37.6479"/>
</g>
<!-- pyVHDLModel.VHDLModel.NamedEntity -->
<g id="node6" class="node">
<title>pyVHDLModel.VHDLModel.NamedEntity</title>
<g id="a_node6"><a xlink:title="A ``NamedEntity`` is a mixin class for all VHDL entities that have names.">
<polygon fill="none" stroke="#000000" stroke-width=".5" points="211,-19 0,-19 0,0 211,0 211,-19"/>
<text text-anchor="middle" x="105.5" y="-7" font-family="Vera Sans, DejaVu Sans, Liberation Sans, Arial, Helvetica, sans" font-size="10.00" fill="#000000">pyVHDLModel.VHDLModel.NamedEntity</text>
</a>
</g>
</g>
<!-- pyVHDLModel.VHDLModel.NamedEntity&#45;&gt;pyVHDLModel.VHDLModel.PrimaryUnit -->
<g id="edge5" class="edge">
<title>pyVHDLModel.VHDLModel.NamedEntity&#45;&gt;pyVHDLModel.VHDLModel.PrimaryUnit</title>
<path fill="none" stroke="#000000" stroke-width=".5" d="M211.3192,-17.2904C221.3204,-18.0267 231.471,-18.7739 241.4967,-19.512"/>
<polygon fill="#000000" stroke="#000000" stroke-width=".5" points="241.6116,-21.2751 246.7267,-19.8971 241.8687,-17.7846 241.6116,-21.2751"/>
</g>
</g>
</svg>
