<?xml version="1.0" encoding="UTF-8" standalone="no"?>
<!DOCTYPE svg PUBLIC "-//W3C//DTD SVG 1.1//EN"
 "http://www.w3.org/Graphics/SVG/1.1/DTD/svg11.dtd">
<!-- Generated by graphviz version 2.40.1 (20161225.0304)
 -->
<!-- Title: inheritance098d0f4b4c Pages: 1 -->
<svg width="576pt" height="60pt"
 viewBox="0.00 0.00 576.00 59.94" xmlns="http://www.w3.org/2000/svg" xmlns:xlink="http://www.w3.org/1999/xlink">
<g id="graph0" class="graph" transform="scale(.9366 .9366) rotate(0) translate(4 60)">
<title>inheritance098d0f4b4c</title>
<polygon fill="#ffffff" stroke="transparent" points="-4,4 -4,-60 611,-60 611,4 -4,4"/>
<!-- pyGHDL.dom.Misc.Library -->
<g id="node1" class="node">
<title>pyGHDL.dom.Misc.Library</title>
<g id="a_node1"><a xlink:href="../pyGHDL/pyGHDL.dom.Misc.html#pyGHDL.dom.Misc.Library" xlink:title="pyGHDL.dom.Misc.Library" target="_top">
<polygon fill="none" stroke="#000000" stroke-width=".5" points="607,-37 464,-37 464,-18 607,-18 607,-37"/>
<text text-anchor="middle" x="535.5" y="-25" font-family="Vera Sans, DejaVu Sans, Liberation Sans, Arial, Helvetica, sans" font-size="10.00" fill="#000000">pyGHDL.dom.Misc.Library</text>
</a>
</g>
</g>
<!-- pyVHDLModel.VHDLModel.Library -->
<g id="node2" class="node">
<title>pyVHDLModel.VHDLModel.Library</title>
<g id="a_node2"><a xlink:title="A ``Library`` represents a VHDL library. It contains all *primary* design">
<polygon fill="none" stroke="#000000" stroke-width=".5" points="428,-37 247,-37 247,-18 428,-18 428,-37"/>
<text text-anchor="middle" x="337.5" y="-25" font-family="Vera Sans, DejaVu Sans, Liberation Sans, Arial, Helvetica, sans" font-size="10.00" fill="#000000">pyVHDLModel.VHDLModel.Library</text>
</a>
</g>
</g>
<!-- pyVHDLModel.VHDLModel.Library&#45;&gt;pyGHDL.dom.Misc.Library -->
<g id="edge1" class="edge">
<title>pyVHDLModel.VHDLModel.Library&#45;&gt;pyGHDL.dom.Misc.Library</title>
<path fill="none" stroke="#000000" stroke-width=".5" d="M428.0979,-27.5C438.33,-27.5 448.6827,-27.5 458.7145,-27.5"/>
<polygon fill="#000000" stroke="#000000" stroke-width=".5" points="458.9289,-29.2501 463.9289,-27.5 458.9289,-25.7501 458.9289,-29.2501"/>
</g>
<!-- pyVHDLModel.VHDLModel.ModelEntity -->
<g id="node3" class="node">
<title>pyVHDLModel.VHDLModel.ModelEntity</title>
<g id="a_node3"><a xlink:title="``ModelEntity`` is a base class for all classes in the VHDL language model,">
<polygon fill="none" stroke="#000000" stroke-width=".5" points="208,-56 3,-56 3,-37 208,-37 208,-56"/>
<text text-anchor="middle" x="105.5" y="-44" font-family="Vera Sans, DejaVu Sans, Liberation Sans, Arial, Helvetica, sans" font-size="10.00" fill="#000000">pyVHDLModel.VHDLModel.ModelEntity</text>
</a>
</g>
</g>
<!-- pyVHDLModel.VHDLModel.ModelEntity&#45;&gt;pyVHDLModel.VHDLModel.Library -->
<g id="edge2" class="edge">
<title>pyVHDLModel.VHDLModel.ModelEntity&#45;&gt;pyVHDLModel.VHDLModel.Library</title>
<path fill="none" stroke="#000000" stroke-width=".5" d="M208.2717,-38.0833C219.4129,-37.1709 230.719,-36.245 241.7717,-35.3398"/>
<polygon fill="#000000" stroke="#000000" stroke-width=".5" points="241.9902,-37.0779 246.8307,-34.9255 241.7045,-33.5896 241.9902,-37.0779"/>
</g>
<!-- pyVHDLModel.VHDLModel.NamedEntity -->
<g id="node4" class="node">
<title>pyVHDLModel.VHDLModel.NamedEntity</title>
<g id="a_node4"><a xlink:title="A ``NamedEntity`` is a mixin class for all VHDL entities that have names.">
<polygon fill="none" stroke="#000000" stroke-width=".5" points="211,-19 0,-19 0,0 211,0 211,-19"/>
<text text-anchor="middle" x="105.5" y="-7" font-family="Vera Sans, DejaVu Sans, Liberation Sans, Arial, Helvetica, sans" font-size="10.00" fill="#000000">pyVHDLModel.VHDLModel.NamedEntity</text>
</a>
</g>
</g>
<!-- pyVHDLModel.VHDLModel.NamedEntity&#45;&gt;pyVHDLModel.VHDLModel.Library -->
<g id="edge3" class="edge">
<title>pyVHDLModel.VHDLModel.NamedEntity&#45;&gt;pyVHDLModel.VHDLModel.Library</title>
<path fill="none" stroke="#000000" stroke-width=".5" d="M211.3164,-17.7099C221.3914,-18.4916 231.5696,-19.2813 241.544,-20.0551"/>
<polygon fill="#000000" stroke="#000000" stroke-width=".5" points="241.6193,-21.8162 246.7397,-20.4583 241.8901,-18.3266 241.6193,-21.8162"/>
</g>
</g>
</svg>
