<?xml version="1.0" encoding="UTF-8" standalone="no"?>
<!DOCTYPE svg PUBLIC "-//W3C//DTD SVG 1.1//EN"
 "http://www.w3.org/Graphics/SVG/1.1/DTD/svg11.dtd">
<!-- Generated by graphviz version 2.40.1 (20161225.0304)
 -->
<!-- Title: inheritance4604c22496 Pages: 1 -->
<svg width="576pt" height="53pt"
 viewBox="0.00 0.00 576.00 52.66" xmlns="http://www.w3.org/2000/svg" xmlns:xlink="http://www.w3.org/1999/xlink">
<g id="graph0" class="graph" transform="scale(.6421 .6421) rotate(0) translate(4 78)">
<title>inheritance4604c22496</title>
<polygon fill="#ffffff" stroke="transparent" points="-4,4 -4,-78 893,-78 893,4 -4,4"/>
<!-- pyGHDL.dom.Common.GHDLMixin -->
<g id="node1" class="node">
<title>pyGHDL.dom.Common.GHDLMixin</title>
<g id="a_node1"><a xlink:href="../pyGHDL.dom.Common.html#pyGHDL.dom.Common.GHDLMixin" xlink:title="pyGHDL.dom.Common.GHDLMixin" target="_top">
<polygon fill="none" stroke="#000000" stroke-width=".5" points="674,-74 489,-74 489,-55 674,-55 674,-74"/>
<text text-anchor="middle" x="581.5" y="-62" font-family="Vera Sans, DejaVu Sans, Liberation Sans, Arial, Helvetica, sans" font-size="10.00" fill="#000000">pyGHDL.dom.Common.GHDLMixin</text>
</a>
</g>
</g>
<!-- pyGHDL.dom.DesignUnit.Context -->
<g id="node2" class="node">
<title>pyGHDL.dom.DesignUnit.Context</title>
<g id="a_node2"><a xlink:href="../pyGHDL/pyGHDL.dom.DesignUnit.html#pyGHDL.dom.DesignUnit.Context" xlink:title="pyGHDL.dom.DesignUnit.Context" target="_top">
<polygon fill="none" stroke="#000000" stroke-width=".5" points="889,-55 710,-55 710,-36 889,-36 889,-55"/>
<text text-anchor="middle" x="799.5" y="-43" font-family="Vera Sans, DejaVu Sans, Liberation Sans, Arial, Helvetica, sans" font-size="10.00" fill="#000000">pyGHDL.dom.DesignUnit.Context</text>
</a>
</g>
</g>
<!-- pyGHDL.dom.Common.GHDLMixin&#45;&gt;pyGHDL.dom.DesignUnit.Context -->
<g id="edge2" class="edge">
<title>pyGHDL.dom.Common.GHDLMixin&#45;&gt;pyGHDL.dom.DesignUnit.Context</title>
<path fill="none" stroke="#000000" stroke-width=".5" d="M674.2677,-56.4147C684.4259,-55.5294 694.7766,-54.6273 704.9559,-53.7401"/>
<polygon fill="#000000" stroke="#000000" stroke-width=".5" points="705.1086,-55.4835 709.9377,-53.3059 704.8046,-51.9967 705.1086,-55.4835"/>
</g>
<!-- pyVHDLModel.VHDLModel.Context -->
<g id="node3" class="node">
<title>pyVHDLModel.VHDLModel.Context</title>
<polygon fill="none" stroke="#000000" stroke-width=".5" points="674,-37 489,-37 489,-18 674,-18 674,-37"/>
<text text-anchor="middle" x="581.5" y="-25" font-family="Vera Sans, DejaVu Sans, Liberation Sans, Arial, Helvetica, sans" font-size="10.00" fill="#000000">pyVHDLModel.VHDLModel.Context</text>
</g>
<!-- pyVHDLModel.VHDLModel.Context&#45;&gt;pyGHDL.dom.DesignUnit.Context -->
<g id="edge1" class="edge">
<title>pyVHDLModel.VHDLModel.Context&#45;&gt;pyGHDL.dom.DesignUnit.Context</title>
<path fill="none" stroke="#000000" stroke-width=".5" d="M674.2677,-35.1597C684.3336,-35.9908 694.5884,-36.8376 704.6783,-37.6707"/>
<polygon fill="#000000" stroke="#000000" stroke-width=".5" points="704.8107,-39.4375 709.9377,-38.105 705.0987,-35.9494 704.8107,-39.4375"/>
</g>
<!-- pyVHDLModel.VHDLModel.PrimaryUnit -->
<g id="node4" class="node">
<title>pyVHDLModel.VHDLModel.PrimaryUnit</title>
<polygon fill="none" stroke="#000000" stroke-width=".5" points="453,-37 247,-37 247,-18 453,-18 453,-37"/>
<text text-anchor="middle" x="350" y="-25" font-family="Vera Sans, DejaVu Sans, Liberation Sans, Arial, Helvetica, sans" font-size="10.00" fill="#000000">pyVHDLModel.VHDLModel.PrimaryUnit</text>
</g>
<!-- pyVHDLModel.VHDLModel.PrimaryUnit&#45;&gt;pyVHDLModel.VHDLModel.Context -->
<g id="edge3" class="edge">
<title>pyVHDLModel.VHDLModel.PrimaryUnit&#45;&gt;pyVHDLModel.VHDLModel.Context</title>
<path fill="none" stroke="#000000" stroke-width=".5" d="M453.2247,-27.5C463.2869,-27.5 473.4768,-27.5 483.4856,-27.5"/>
<polygon fill="#000000" stroke="#000000" stroke-width=".5" points="483.7013,-29.2501 488.7013,-27.5 483.7013,-25.7501 483.7013,-29.2501"/>
</g>
<!-- pyVHDLModel.VHDLModel.ModelEntity -->
<g id="node5" class="node">
<title>pyVHDLModel.VHDLModel.ModelEntity</title>
<g id="a_node5"><a xlink:title="``ModelEntity`` is a base class for all classes in the VHDL language model,">
<polygon fill="none" stroke="#000000" stroke-width=".5" points="208,-56 3,-56 3,-37 208,-37 208,-56"/>
<text text-anchor="middle" x="105.5" y="-44" font-family="Vera Sans, DejaVu Sans, Liberation Sans, Arial, Helvetica, sans" font-size="10.00" fill="#000000">pyVHDLModel.VHDLModel.ModelEntity</text>
</a>
</g>
</g>
<!-- pyVHDLModel.VHDLModel.ModelEntity&#45;&gt;pyVHDLModel.VHDLModel.PrimaryUnit -->
<g id="edge4" class="edge">
<title>pyVHDLModel.VHDLModel.ModelEntity&#45;&gt;pyVHDLModel.VHDLModel.PrimaryUnit</title>
<path fill="none" stroke="#000000" stroke-width=".5" d="M208.1273,-38.5249C219.2334,-37.6618 230.5613,-36.7815 241.7314,-35.9135"/>
<polygon fill="#000000" stroke="#000000" stroke-width=".5" points="242.0018,-37.6479 246.8512,-35.5157 241.7306,-34.1584 242.0018,-37.6479"/>
</g>
<!-- pyVHDLModel.VHDLModel.NamedEntity -->
<g id="node6" class="node">
<title>pyVHDLModel.VHDLModel.NamedEntity</title>
<g id="a_node6"><a xlink:title="A ``NamedEntity`` is a mixin class for all VHDL entities that have names.">
<polygon fill="none" stroke="#000000" stroke-width=".5" points="211,-19 0,-19 0,0 211,0 211,-19"/>
<text text-anchor="middle" x="105.5" y="-7" font-family="Vera Sans, DejaVu Sans, Liberation Sans, Arial, Helvetica, sans" font-size="10.00" fill="#000000">pyVHDLModel.VHDLModel.NamedEntity</text>
</a>
</g>
</g>
<!-- pyVHDLModel.VHDLModel.NamedEntity&#45;&gt;pyVHDLModel.VHDLModel.PrimaryUnit -->
<g id="edge5" class="edge">
<title>pyVHDLModel.VHDLModel.NamedEntity&#45;&gt;pyVHDLModel.VHDLModel.PrimaryUnit</title>
<path fill="none" stroke="#000000" stroke-width=".5" d="M211.3192,-17.2904C221.3204,-18.0267 231.471,-18.7739 241.4967,-19.512"/>
<polygon fill="#000000" stroke="#000000" stroke-width=".5" points="241.6116,-21.2751 246.7267,-19.8971 241.8687,-17.7846 241.6116,-21.2751"/>
</g>
</g>
</svg>
