<?xml version="1.0" encoding="UTF-8" standalone="no"?>
<!DOCTYPE svg PUBLIC "-//W3C//DTD SVG 1.1//EN"
 "http://www.w3.org/Graphics/SVG/1.1/DTD/svg11.dtd">
<!-- Generated by graphviz version 2.40.1 (20161225.0304)
 -->
<!-- Title: inheritance603f005e44 Pages: 1 -->
<svg width="576pt" height="24pt"
 viewBox="0.00 0.00 576.00 24.26" xmlns="http://www.w3.org/2000/svg" xmlns:xlink="http://www.w3.org/1999/xlink">
<g id="graph0" class="graph" transform="scale(.8986 .8986) rotate(0) translate(4 23)">
<title>inheritance603f005e44</title>
<polygon fill="#ffffff" stroke="transparent" points="-4,4 -4,-23 637,-23 637,4 -4,4"/>
<!-- pyGHDL.dom.Misc.Document -->
<g id="node1" class="node">
<title>pyGHDL.dom.Misc.Document</title>
<g id="a_node1"><a xlink:href="../pyGHDL/pyGHDL.dom.Misc.html#pyGHDL.dom.Misc.Document" xlink:title="pyGHDL.dom.Misc.Document" target="_top">
<polygon fill="none" stroke="#000000" stroke-width=".5" points="633,-19 474,-19 474,0 633,0 633,-19"/>
<text text-anchor="middle" x="553.5" y="-7" font-family="Vera Sans, DejaVu Sans, Liberation Sans, Arial, Helvetica, sans" font-size="10.00" fill="#000000">pyGHDL.dom.Misc.Document</text>
</a>
</g>
</g>
<!-- pyVHDLModel.VHDLModel.Document -->
<g id="node2" class="node">
<title>pyVHDLModel.VHDLModel.Document</title>
<g id="a_node2"><a xlink:title="A ``Document`` represents a sourcefile. It contains primary and secondary">
<polygon fill="none" stroke="#000000" stroke-width=".5" points="438,-19 241,-19 241,0 438,0 438,-19"/>
<text text-anchor="middle" x="339.5" y="-7" font-family="Vera Sans, DejaVu Sans, Liberation Sans, Arial, Helvetica, sans" font-size="10.00" fill="#000000">pyVHDLModel.VHDLModel.Document</text>
</a>
</g>
</g>
<!-- pyVHDLModel.VHDLModel.Document&#45;&gt;pyGHDL.dom.Misc.Document -->
<g id="edge1" class="edge">
<title>pyVHDLModel.VHDLModel.Document&#45;&gt;pyGHDL.dom.Misc.Document</title>
<path fill="none" stroke="#000000" stroke-width=".5" d="M438.044,-9.5C448.2261,-9.5 458.5109,-9.5 468.5266,-9.5"/>
<polygon fill="#000000" stroke="#000000" stroke-width=".5" points="468.7377,-11.2501 473.7376,-9.5 468.7376,-7.7501 468.7377,-11.2501"/>
</g>
<!-- pyVHDLModel.VHDLModel.ModelEntity -->
<g id="node3" class="node">
<title>pyVHDLModel.VHDLModel.ModelEntity</title>
<g id="a_node3"><a xlink:title="``ModelEntity`` is a base class for all classes in the VHDL language model,">
<polygon fill="none" stroke="#000000" stroke-width=".5" points="205,-19 0,-19 0,0 205,0 205,-19"/>
<text text-anchor="middle" x="102.5" y="-7" font-family="Vera Sans, DejaVu Sans, Liberation Sans, Arial, Helvetica, sans" font-size="10.00" fill="#000000">pyVHDLModel.VHDLModel.ModelEntity</text>
</a>
</g>
</g>
<!-- pyVHDLModel.VHDLModel.ModelEntity&#45;&gt;pyVHDLModel.VHDLModel.Document -->
<g id="edge2" class="edge">
<title>pyVHDLModel.VHDLModel.ModelEntity&#45;&gt;pyVHDLModel.VHDLModel.Document</title>
<path fill="none" stroke="#000000" stroke-width=".5" d="M205.0732,-9.5C215.2866,-9.5 225.6607,-9.5 235.8847,-9.5"/>
<polygon fill="#000000" stroke="#000000" stroke-width=".5" points="235.8903,-11.2501 240.8903,-9.5 235.8903,-7.7501 235.8903,-11.2501"/>
</g>
</g>
</svg>
