<?xml version="1.0" encoding="UTF-8" standalone="no"?>
<!-- Created with Inkscape (http://www.inkscape.org/) -->

<svg
   xmlns:dc="http://purl.org/dc/elements/1.1/"
   xmlns:cc="http://creativecommons.org/ns#"
   xmlns:rdf="http://www.w3.org/1999/02/22-rdf-syntax-ns#"
   xmlns:svg="http://www.w3.org/2000/svg"
   xmlns="http://www.w3.org/2000/svg"
   xmlns:sodipodi="http://sodipodi.sourceforge.net/DTD/sodipodi-0.dtd"
   xmlns:inkscape="http://www.inkscape.org/namespaces/inkscape"
   width="297mm"
   height="210mm"
   viewBox="0 0 1052.3622 744.09448"
   id="svg2"
   version="1.1"
   inkscape:version="0.91 r13725"
   sodipodi:docname="Zeichnung.svg"
   inkscape:export-filename="/home/red/artikel_uart/capitalisation/zeichnung.png"
   inkscape:export-xdpi="90"
   inkscape:export-ydpi="90">
  <defs
     id="defs4">
    <marker
       inkscape:stockid="Arrow1Lend"
       orient="auto"
       refY="0.0"
       refX="0.0"
       id="Arrow1Lend"
       style="overflow:visible;"
       inkscape:isstock="true">
      <path
         id="path4245"
         d="M 0.0,0.0 L 5.0,-5.0 L -12.5,0.0 L 5.0,5.0 L 0.0,0.0 z "
         style="fill-rule:evenodd;stroke:#000000;stroke-width:1.0pt;"
         transform="scale(0.8) rotate(180) translate(12.5,0)" />
    </marker>
    <marker
       inkscape:stockid="Arrow1Lend"
       orient="auto"
       refY="0.0"
       refX="0.0"
       id="marker5517"
       style="overflow:visible;"
       inkscape:isstock="true">
      <path
         id="path5519"
         d="M 0.0,0.0 L 5.0,-5.0 L -12.5,0.0 L 5.0,5.0 L 0.0,0.0 z "
         style="fill-rule:evenodd;stroke:#000000;stroke-width:1pt;stroke-opacity:1;fill:#000000;fill-opacity:1"
         transform="scale(0.8) rotate(180) translate(12.5,0)" />
    </marker>
  </defs>
  <sodipodi:namedview
     id="base"
     pagecolor="#ffffff"
     bordercolor="#666666"
     borderopacity="1.0"
     inkscape:pageopacity="0.0"
     inkscape:pageshadow="2"
     inkscape:zoom="0.98994949"
     inkscape:cx="490.27074"
     inkscape:cy="477.90138"
     inkscape:document-units="px"
     inkscape:current-layer="layer1"
     showgrid="false"
     inkscape:window-width="1920"
     inkscape:window-height="1016"
     inkscape:window-x="0"
     inkscape:window-y="27"
     inkscape:window-maximized="1" />
  <metadata
     id="metadata7">
    <rdf:RDF>
      <cc:Work
         rdf:about="">
        <dc:format>image/svg+xml</dc:format>
        <dc:type
           rdf:resource="http://purl.org/dc/dcmitype/StillImage" />
        <dc:title></dc:title>
      </cc:Work>
    </rdf:RDF>
  </metadata>
  <g
     inkscape:label="Ebene 1"
     inkscape:groupmode="layer"
     id="layer1"
     transform="translate(0,-308.26772)">
    <rect
       style="opacity:1;fill:#e6e6e6;fill-opacity:1;stroke:#000000;stroke-width:2;stroke-miterlimit:4;stroke-dasharray:none;stroke-dashoffset:0;stroke-opacity:1"
       id="rect4590"
       width="700.03564"
       height="360.62445"
       x="34.654861"
       y="362.42804"
       inkscape:export-xdpi="90"
       inkscape:export-ydpi="90"
       inkscape:export-filename="/home/red/artikel_uart/capitalisation/rect4590.png" />
    <rect
       y="478.54639"
       x="260.19949"
       height="214.28572"
       width="252.68301"
       id="rect4154"
       style="opacity:1;fill:#ffffff;fill-opacity:1;stroke:#000000;stroke-width:2;stroke-miterlimit:4;stroke-dasharray:none;stroke-dashoffset:0;stroke-opacity:1"
       inkscape:export-filename="/home/red/artikel_uart/capitalisation/rect4590.png"
       inkscape:export-xdpi="90"
       inkscape:export-ydpi="90" />
    <text
       xml:space="preserve"
       style="font-style:normal;font-weight:normal;font-size:25px;line-height:125%;font-family:sans-serif;letter-spacing:0px;word-spacing:0px;fill:#000000;fill-opacity:1;stroke:none;stroke-width:1px;stroke-linecap:butt;stroke-linejoin:miter;stroke-opacity:1"
       x="313.14285"
       y="623.79077"
       id="text4136"
       sodipodi:linespacing="125%"
       inkscape:export-filename="/home/red/artikel_uart/capitalisation/rect4590.png"
       inkscape:export-xdpi="90"
       inkscape:export-ydpi="90"><tspan
         sodipodi:role="line"
         id="tspan4138"
         x="313.14285"
         y="623.79077">capitalisation</tspan></text>
    <text
       xml:space="preserve"
       style="font-style:normal;font-weight:normal;font-size:25px;line-height:125%;font-family:sans-serif;letter-spacing:0px;word-spacing:0px;fill:#000000;fill-opacity:1;stroke:none;stroke-width:1px;stroke-linecap:butt;stroke-linejoin:miter;stroke-opacity:1"
       x="113.99998"
       y="645.79077"
       id="text4140"
       sodipodi:linespacing="125%"
       inkscape:export-filename="/home/red/artikel_uart/capitalisation/rect4590.png"
       inkscape:export-xdpi="90"
       inkscape:export-ydpi="90"><tspan
         sodipodi:role="line"
         id="tspan4142"
         x="113.99998"
         y="645.79077">c function</tspan><tspan
         sodipodi:role="line"
         x="113.99998"
         y="677.04077"
         id="tspan4530">read_data</tspan></text>
    <rect
       style="opacity:1;fill:none;fill-opacity:1;stroke:#000000;stroke-width:1.99999988;stroke-miterlimit:4;stroke-dasharray:none;stroke-dashoffset:0;stroke-opacity:1"
       id="rect4148"
       width="156.59319"
       height="70"
       x="98.549683"
       y="615.50507"
       inkscape:export-filename="/home/red/artikel_uart/capitalisation/rect4590.png"
       inkscape:export-xdpi="90"
       inkscape:export-ydpi="90" />
    <rect
       y="579.50507"
       x="296.28574"
       height="70"
       width="182.85715"
       id="rect4150"
       style="opacity:1;fill:none;fill-opacity:1;stroke:#000000;stroke-width:2;stroke-miterlimit:4;stroke-dasharray:none;stroke-dashoffset:0;stroke-opacity:1"
       inkscape:export-filename="/home/red/artikel_uart/capitalisation/rect4590.png"
       inkscape:export-xdpi="90"
       inkscape:export-ydpi="90" />
    <rect
       style="opacity:1;fill:none;fill-opacity:1;stroke:#000000;stroke-width:2;stroke-miterlimit:4;stroke-dasharray:none;stroke-dashoffset:0;stroke-opacity:1"
       id="rect4152"
       width="182.85715"
       height="70"
       x="520.28577"
       y="579.50507"
       inkscape:export-filename="/home/red/artikel_uart/capitalisation/rect4590.png"
       inkscape:export-xdpi="90"
       inkscape:export-ydpi="90" />
    <text
       xml:space="preserve"
       style="font-style:normal;font-weight:normal;font-size:25px;line-height:125%;font-family:sans-serif;letter-spacing:0px;word-spacing:0px;fill:#000000;fill-opacity:1;stroke:none;stroke-width:1px;stroke-linecap:butt;stroke-linejoin:miter;stroke-opacity:1"
       x="390.94702"
       y="512.03662"
       id="text4168"
       sodipodi:linespacing="125%"
       inkscape:export-filename="/home/red/artikel_uart/capitalisation/rect4590.png"
       inkscape:export-xdpi="90"
       inkscape:export-ydpi="90"><tspan
         sodipodi:role="line"
         id="tspan4170"
         x="390.94702"
         y="512.03662">tb_tty.vhd</tspan></text>
    <path
       inkscape:connector-curvature="0"
       id="path4172"
       d="m 255.57141,626.64789 40.35714,0"
       style="fill:none;fill-rule:evenodd;stroke:#000000;stroke-width:1px;stroke-linecap:butt;stroke-linejoin:miter;stroke-opacity:1"
       inkscape:export-filename="/home/red/artikel_uart/capitalisation/rect4590.png"
       inkscape:export-xdpi="90"
       inkscape:export-ydpi="90" />
    <path
       style="fill:none;fill-rule:evenodd;stroke:#000000;stroke-width:1px;stroke-linecap:butt;stroke-linejoin:miter;stroke-opacity:1"
       d="m 479.57141,626.64789 40.35714,0"
       id="path4174"
       inkscape:connector-curvature="0"
       inkscape:export-filename="/home/red/artikel_uart/capitalisation/rect4590.png"
       inkscape:export-xdpi="90"
       inkscape:export-ydpi="90" />
    <text
       xml:space="preserve"
       style="font-style:normal;font-weight:normal;font-size:17.1706295px;line-height:125%;font-family:sans-serif;letter-spacing:0px;word-spacing:0px;fill:#000000;fill-opacity:1;stroke:none;stroke-width:1px;stroke-linecap:butt;stroke-linejoin:miter;stroke-opacity:1"
       x="-789.13831"
       y="242.90793"
       id="text4490"
       sodipodi:linespacing="125%"
       transform="matrix(0,-0.86921859,1.1504586,0,0,0)"
       inkscape:export-filename="/home/red/artikel_uart/capitalisation/rect4590.png"
       inkscape:export-xdpi="90"
       inkscape:export-ydpi="90"><tspan
         sodipodi:role="line"
         id="tspan4492"
         x="-789.13831"
         y="242.90793">8bit parallel</tspan></text>
    <text
       transform="matrix(0,-0.86921859,1.1504586,0,0,0)"
       sodipodi:linespacing="125%"
       id="text4494"
       y="440.23749"
       x="-709.15009"
       style="font-style:normal;font-weight:normal;font-size:17.1706295px;line-height:125%;font-family:sans-serif;letter-spacing:0px;word-spacing:0px;fill:#000000;fill-opacity:1;stroke:none;stroke-width:1px;stroke-linecap:butt;stroke-linejoin:miter;stroke-opacity:1"
       xml:space="preserve"
       inkscape:export-filename="/home/red/artikel_uart/capitalisation/rect4590.png"
       inkscape:export-xdpi="90"
       inkscape:export-ydpi="90"><tspan
         y="440.23749"
         x="-709.15009"
         id="tspan4496"
         sodipodi:role="line">8bit parallel</tspan></text>
    <text
       xml:space="preserve"
       style="font-style:normal;font-weight:normal;font-size:25px;line-height:125%;font-family:sans-serif;letter-spacing:0px;word-spacing:0px;fill:#000000;fill-opacity:1;stroke:none;stroke-width:1px;stroke-linecap:butt;stroke-linejoin:miter;stroke-opacity:1"
       x="286.33514"
       y="505.65875"
       id="text4517"
       sodipodi:linespacing="125%"
       inkscape:export-filename="/home/red/artikel_uart/capitalisation/rect4590.png"
       inkscape:export-xdpi="90"
       inkscape:export-ydpi="90"><tspan
         sodipodi:role="line"
         id="tspan4519"
         x="286.33514"
         y="505.65875">clk</tspan></text>
    <text
       xml:space="preserve"
       style="font-style:normal;font-weight:normal;font-size:25px;line-height:125%;font-family:sans-serif;letter-spacing:0px;word-spacing:0px;fill:#000000;fill-opacity:1;stroke:none;stroke-width:1px;stroke-linecap:butt;stroke-linejoin:miter;stroke-opacity:1"
       x="279.11826"
       y="531.00616"
       id="text4521"
       sodipodi:linespacing="125%"
       inkscape:export-filename="/home/red/artikel_uart/capitalisation/rect4590.png"
       inkscape:export-xdpi="90"
       inkscape:export-ydpi="90"><tspan
         sodipodi:role="line"
         id="tspan4523"
         x="279.11826"
         y="531.00616">reset</tspan></text>
    <text
       xml:space="preserve"
       style="font-style:normal;font-weight:normal;font-size:25px;line-height:125%;font-family:sans-serif;letter-spacing:0px;word-spacing:0px;fill:#000000;fill-opacity:1;stroke:none;stroke-width:1px;stroke-linecap:butt;stroke-linejoin:miter;stroke-opacity:1"
       x="547.81238"
       y="610.96613"
       id="text4524"
       sodipodi:linespacing="125%"
       inkscape:export-filename="/home/red/artikel_uart/capitalisation/rect4590.png"
       inkscape:export-xdpi="90"
       inkscape:export-ydpi="90"><tspan
         sodipodi:role="line"
         id="tspan4526"
         x="547.81238"
         y="610.96613">c function</tspan><tspan
         sodipodi:role="line"
         x="547.81238"
         y="642.21613"
         id="tspan4528">write_data</tspan></text>
    <text
       xml:space="preserve"
       style="font-style:normal;font-weight:normal;font-size:25px;line-height:125%;font-family:sans-serif;letter-spacing:0px;word-spacing:0px;fill:#000000;fill-opacity:1;stroke:none;stroke-width:1px;stroke-linecap:butt;stroke-linejoin:miter;stroke-opacity:1"
       x="651.70575"
       y="405.86456"
       id="text4592"
       sodipodi:linespacing="125%"
       inkscape:export-filename="/home/red/artikel_uart/capitalisation/rect4590.png"
       inkscape:export-xdpi="90"
       inkscape:export-ydpi="90"><tspan
         sodipodi:role="line"
         id="tspan4594"
         x="651.70575"
         y="405.86456">tty.c</tspan></text>
    <text
       xml:space="preserve"
       style="font-style:normal;font-weight:normal;font-size:25px;line-height:125%;font-family:sans-serif;letter-spacing:0px;word-spacing:0px;fill:#000000;fill-opacity:1;stroke:none;stroke-width:1px;stroke-linecap:butt;stroke-linejoin:miter;stroke-opacity:1"
       x="106.25388"
       y="546.13361"
       id="text4598"
       sodipodi:linespacing="125%"
       inkscape:export-filename="/home/red/artikel_uart/capitalisation/rect4590.png"
       inkscape:export-xdpi="90"
       inkscape:export-ydpi="90"><tspan
         sodipodi:role="line"
         id="tspan4600"
         x="106.25388"
         y="546.13361">c function</tspan><tspan
         sodipodi:role="line"
         x="106.25388"
         y="577.38361"
         id="tspan4602">read_enable</tspan></text>
    <rect
       y="523.50507"
       x="98.549683"
       height="70"
       width="156.59319"
       id="rect4604"
       style="opacity:1;fill:none;fill-opacity:1;stroke:#000000;stroke-width:1.99999988;stroke-miterlimit:4;stroke-dasharray:none;stroke-dashoffset:0;stroke-opacity:1"
       inkscape:export-filename="/home/red/artikel_uart/capitalisation/rect4590.png"
       inkscape:export-xdpi="90"
       inkscape:export-ydpi="90" />
    <text
       sodipodi:linespacing="125%"
       id="text4606"
       y="410.8595"
       x="108.23357"
       style="font-style:normal;font-weight:normal;font-size:25px;line-height:125%;font-family:sans-serif;letter-spacing:0px;word-spacing:0px;fill:#000000;fill-opacity:1;stroke:none;stroke-width:1px;stroke-linecap:butt;stroke-linejoin:miter;stroke-opacity:1"
       xml:space="preserve"
       inkscape:export-filename="/home/red/artikel_uart/capitalisation/rect4590.png"
       inkscape:export-xdpi="90"
       inkscape:export-ydpi="90"><tspan
         y="410.8595"
         x="108.23357"
         id="tspan4608"
         sodipodi:role="line">c function</tspan><tspan
         id="tspan4610"
         y="442.1095"
         x="108.23357"
         sodipodi:role="line">tty_open</tspan></text>
    <rect
       style="opacity:1;fill:none;fill-opacity:1;stroke:#000000;stroke-width:1.99999988;stroke-miterlimit:4;stroke-dasharray:none;stroke-dashoffset:0;stroke-opacity:1"
       id="rect4612"
       width="156.59319"
       height="70"
       x="98.549683"
       y="383.50507"
       inkscape:export-filename="/home/red/artikel_uart/capitalisation/rect4590.png"
       inkscape:export-xdpi="90"
       inkscape:export-ydpi="90" />
    <path
       style="fill:none;fill-rule:evenodd;stroke:#000000;stroke-width:1px;stroke-linecap:butt;stroke-linejoin:miter;stroke-opacity:1"
       d="m 255.57141,586.64789 40.35714,0"
       id="path4614"
       inkscape:connector-curvature="0"
       inkscape:export-filename="/home/red/artikel_uart/capitalisation/rect4590.png"
       inkscape:export-xdpi="90"
       inkscape:export-ydpi="90" />
    <text
       transform="matrix(0,-0.86921859,1.1504586,0,0,0)"
       sodipodi:linespacing="125%"
       id="text4616"
       y="242.90793"
       x="-667.19043"
       style="font-style:normal;font-weight:normal;font-size:17.1706295px;line-height:125%;font-family:sans-serif;letter-spacing:0px;word-spacing:0px;fill:#000000;fill-opacity:1;stroke:none;stroke-width:1px;stroke-linecap:butt;stroke-linejoin:miter;stroke-opacity:1"
       xml:space="preserve"
       inkscape:export-filename="/home/red/artikel_uart/capitalisation/rect4590.png"
       inkscape:export-xdpi="90"
       inkscape:export-ydpi="90"><tspan
         y="242.90793"
         x="-667.19043"
         id="tspan4618"
         sodipodi:role="line">rd_en</tspan></text>
    <rect
       style="opacity:1;fill:#ffffff;fill-opacity:1;stroke:#000000;stroke-width:2;stroke-miterlimit:4;stroke-dasharray:none;stroke-dashoffset:0;stroke-opacity:1"
       id="rect4639"
       width="168.69548"
       height="134.3503"
       x="855.59918"
       y="397.78336"
       inkscape:export-filename="/home/red/artikel_uart/capitalisation/rect4590.png"
       inkscape:export-xdpi="90"
       inkscape:export-ydpi="90" />
    <text
       xml:space="preserve"
       style="font-style:normal;font-weight:normal;font-size:25px;line-height:125%;font-family:sans-serif;letter-spacing:0px;word-spacing:0px;fill:#000000;fill-opacity:1;stroke:none;stroke-width:1px;stroke-linecap:butt;stroke-linejoin:miter;stroke-opacity:1"
       x="876.81244"
       y="422.02701"
       id="text4641"
       sodipodi:linespacing="125%"
       inkscape:export-filename="/home/red/artikel_uart/capitalisation/rect4590.png"
       inkscape:export-xdpi="90"
       inkscape:export-ydpi="90"><tspan
         sodipodi:role="line"
         id="tspan4643"
         x="876.81244"
         y="422.02701">terminal</tspan></text>
    <path
       style="fill:none;fill-rule:evenodd;stroke:#000000;stroke-width:2;stroke-linecap:butt;stroke-linejoin:miter;stroke-opacity:1;stroke-miterlimit:4;stroke-dasharray:none"
       d="m 854.58906,427.07778 c 169.70564,0 169.70564,0 169.70564,0"
       id="path4645"
       inkscape:connector-curvature="0"
       inkscape:export-filename="/home/red/artikel_uart/capitalisation/rect4590.png"
       inkscape:export-xdpi="90"
       inkscape:export-ydpi="90" />
    <text
       xml:space="preserve"
       style="font-style:normal;font-weight:normal;font-size:25px;line-height:125%;font-family:sans-serif;letter-spacing:0px;word-spacing:0px;fill:#000000;fill-opacity:1;stroke:none;stroke-width:1px;stroke-linecap:butt;stroke-linejoin:miter;stroke-opacity:1"
       x="865.70074"
       y="457.38235"
       id="text4647"
       sodipodi:linespacing="125%"
       inkscape:export-filename="/home/red/artikel_uart/capitalisation/rect4590.png"
       inkscape:export-xdpi="90"
       inkscape:export-ydpi="90"><tspan
         sodipodi:role="line"
         id="tspan4649"
         x="865.70074"
         y="457.38235">$&gt;</tspan></text>
    <path
       style="fill:none;fill-rule:evenodd;stroke:#000000;stroke-width:1px;stroke-linecap:butt;stroke-linejoin:miter;stroke-opacity:1"
       d="m 735.39106,449.30114 c 0,-1.68359 0,-3.36718 0,-5.05077 0,-0.33671 -0.15059,-0.70898 0,-1.01015 0.21295,-0.42592 0.79719,-0.58423 1.01015,-1.01015 0.15058,-0.30117 -0.15059,-0.70898 0,-1.01015 0.21296,-0.42592 0.79719,-0.58424 1.01015,-1.01016 0.15058,-0.30117 -0.15058,-0.70898 0,-1.01015 0.42592,-0.85183 1.59439,-1.16847 2.02031,-2.0203 0.30116,-0.60234 -0.4762,-1.54412 0,-2.02031 2.09004,-2.09004 -0.0817,3.19386 2.0203,-1.01015 0.30117,-0.60234 -0.47619,-1.54412 0,-2.02031 0.2381,-0.23809 0.77206,0.2381 1.01015,0 0.47619,-0.47619 -0.47619,-1.54411 0,-2.0203 0.2381,-0.2381 0.70899,0.15058 1.01016,0 0.42591,-0.21296 0.67343,-0.67344 1.01015,-1.01015 0.33672,-0.33672 0.79719,-0.58424 1.01015,-1.01016 0.15059,-0.30117 -0.15058,-0.70898 0,-1.01015 0.21296,-0.42592 0.67344,-0.67343 1.01015,-1.01015 0.33672,-0.33672 0.58424,-0.7972 1.01016,-1.01015 0.60233,-0.30117 1.54411,0.47619 2.0203,0 0.2381,-0.2381 -0.23809,-0.77206 0,-1.01016 0.2381,-0.23809 0.70898,0.15059 1.01015,0 0.42592,-0.21296 0.58424,-0.79719 1.01016,-1.01015 0.30117,-0.15058 0.77205,0.2381 1.01015,0 0.23809,-0.23809 -0.2381,-0.77206 0,-1.01015 0.23809,-0.2381 0.70898,0.15058 1.01015,0 0.85184,-0.42592 1.16847,-1.59439 2.02031,-2.02031 0.30117,-0.15058 0.70898,0.15059 1.01015,0 0.42592,-0.21296 0.58423,-0.79719 1.01015,-1.01015 0.30742,-0.15371 2.57553,0 3.03046,0 0.52823,0 3.775,-0.13281 4.04061,0 0.42592,0.21296 0.58423,0.79719 1.01015,1.01015 1.07979,0.5399 0.94052,-0.53989 2.02031,0 0.42591,0.21296 0.58423,0.7972 1.01015,1.01016 0.30117,0.15058 0.70898,-0.15059 1.01015,0 0.42592,0.21295 0.58424,0.79719 1.01015,1.01015 0.30117,0.15058 0.70899,-0.15059 1.01016,0 0.99402,0.49701 3.04659,3.5436 4.04061,4.04061 0.60234,0.30117 1.41796,-0.30117 2.0203,0 4.20402,2.102 -1.07989,-0.0697 1.01015,2.0203 0.2381,0.2381 0.70899,-0.15058 1.01016,0 0.19336,0.0967 3.94393,3.84725 4.04061,4.04061 0.15058,0.30117 -0.2381,0.77206 0,1.01016 0.23809,0.23809 0.70898,-0.15059 1.01015,0 1.21218,0.60609 1.81827,2.42436 3.03046,3.03045 0.30117,0.15059 0.70898,-0.15058 1.01015,0 4.20401,2.10201 -1.07989,-0.0697 1.01015,2.02031 0.2381,0.23809 0.70899,-0.15059 1.01016,0 0.42591,0.21296 0.58423,0.79719 1.01015,1.01015 0.30117,0.15059 0.70898,-0.15058 1.01015,0 1.21218,0.60609 1.81827,2.42437 3.03046,3.03046 0.60234,0.30117 1.54411,-0.47619 2.0203,0 0.2381,0.23809 -0.23809,0.77206 0,1.01015 0.47619,0.47619 1.54412,-0.47619 2.02031,0 0.23809,0.2381 -0.2381,0.77206 0,1.01015 0.23809,0.2381 0.70898,-0.15058 1.01015,0 0.42592,0.21296 0.58424,0.7972 1.01015,1.01016 0.30117,0.15058 0.70899,-0.15059 1.01016,0 0.42591,0.21296 0.58423,0.79719 1.01015,1.01015 0.60234,0.30117 1.41796,-0.30117 2.0203,0 0.42592,0.21296 0.58424,0.79719 1.01016,1.01015 0.6349,0.31745 3.4057,-0.31745 4.04061,0 0.42591,0.21296 0.58423,0.7972 1.01015,1.01015 0.30117,0.15059 0.67343,0 1.01015,0 2.02031,0 4.04061,0 6.06092,0 0.33671,0 0.77205,0.2381 1.01015,0 0.23809,-0.23809 -0.2381,-0.77205 0,-1.01015 0.23809,-0.23809 0.67343,0 1.01015,0 0.33672,0 0.67344,0 1.01015,0 0.716,0 5.79974,0.13059 6.06092,0 0.42592,-0.21296 0.58423,-0.79719 1.01015,-1.01015 0.36531,-0.18265 4.34816,0 5.05076,0 0.70261,0 4.68546,-0.18265 5.05077,0 0.42592,0.21296 0.58423,0.79719 1.01015,1.01015 0.30117,0.15059 0.67344,0 1.01015,0 0.33672,0 0.67344,0 1.01016,0 1.68358,0 3.36717,0 5.05076,0 0.33672,0 0.70898,-0.15058 1.01015,0 3.35025,3.35026 -0.95238,-0.47619 2.02031,1.01015 0.42591,0.21296 0.58423,0.7972 1.01015,1.01016 0.60234,0.30117 1.54411,-0.47619 2.0203,0 0.2381,0.23809 -0.23809,0.77205 0,1.01015 0.2381,0.23809 0.67344,0 1.01016,0 0.33671,0 0.67343,0 1.01015,0"
       id="path4651"
       inkscape:connector-curvature="0"
       inkscape:export-filename="/home/red/artikel_uart/capitalisation/rect4590.png"
       inkscape:export-xdpi="90"
       inkscape:export-ydpi="90" />
  </g>
</svg>
